<mxfile host="65bd71144e">
    <diagram id="bDeRIHy7kMndJ-hezD6S" name="Page-1">
        <mxGraphModel dx="1492" dy="412" grid="1" gridSize="10" guides="1" tooltips="1" connect="1" arrows="1" fold="1" page="1" pageScale="1" pageWidth="827" pageHeight="1169" math="0" shadow="0">
            <root>
                <mxCell id="0"/>
                <mxCell id="1" parent="0"/>
                <mxCell id="4" value="Send logs" style="edgeStyle=none;html=1;entryX=0.5;entryY=0;entryDx=0;entryDy=0;" parent="1" source="2" target="3" edge="1">
                    <mxGeometry relative="1" as="geometry"/>
                </mxCell>
                <mxCell id="2" value="Agents" style="shape=image;verticalLabelPosition=bottom;labelBackgroundColor=default;verticalAlign=top;aspect=fixed;imageAspect=0;image=data:image/svg+xml,PHN2ZyB4bWxucz0iaHR0cDovL3d3dy53My5vcmcvMjAwMC9zdmciIGlkPSJMYXllcl8xIiB2aWV3Qm94PSIwIDAgODAgODAiIHdpZHRoPSIyNTAwIiBoZWlnaHQ9IjI1MDAiPjxzdHlsZT4uc3Qwe2ZpbGw6IzA3YTVkZX0uc3Qxe2ZpbGw6IzNlYmViMH0uc3Qye29wYWNpdHk6LjI2O2VuYWJsZS1iYWNrZ3JvdW5kOm5ld30uc3QyLC5zdDN7ZmlsbDojMzUzNTM1fS5zdDR7ZmlsbDpub25lfTwvc3R5bGU+PHBhdGggY2xhc3M9InN0MCIgZD0iTTM4LjggNDUuMUgxNy40VjEwLjVoMjEuNGM5LjYgMCAxNy4zIDcuNyAxNy4zIDE3LjMgMCA5LjYtNy43IDE3LjMtMTcuMyAxNy4zeiIvPjxwYXRoIGNsYXNzPSJzdDEiIGQ9Ik00NS4zIDY5LjVIMTcuNFYzNC45aDI3LjljOS42IDAgMTcuMyA3LjcgMTcuMyAxNy4zIDAgOS42LTcuNyAxNy4zLTE3LjMgMTcuM3oiLz48cGF0aCBjbGFzcz0ic3QyIiBkPSJNNTguNCA0MC45Yy0zLjItMy43LTcuOS02LTEzLjEtNkgxNy40djE2aDI1LjljOS4yIDAgMTUuNi05LjUgMTUuMS0xMHoiLz48cGF0aCBjbGFzcz0ic3QzIiBkPSJNMzguOCA0NS4xYzYuMiAwIDExLjYtMy4zIDE0LjctOC4yLS40LS4yLS44LS40LTEuMy0uNi0uMSAwLS4yLS4xLS4zLS4xLS40LS4yLS44LS4zLTEuMy0uNWgtLjFjLS4xIDAtLjEgMC0uMi0uMWwtMS4yLS4zaC0uMmMtLjEgMC0uMiAwLS4yLS4xLS40LS4xLS44LS4xLTEuMi0uMmgtLjZjLS41IDAtLjktLjEtMS40LS4xSDE3LjR2MTAuMmgyMS40eiIvPjxwYXRoIGNsYXNzPSJzdDQiIGQ9Ik0wIDBoODB2ODBIMHoiLz48L3N2Zz4=;fontColor=#FFFFFF;" parent="1" vertex="1">
                    <mxGeometry x="130" y="70" width="100" height="100" as="geometry"/>
                </mxCell>
                <mxCell id="9" style="edgeStyle=none;html=1;fontColor=#FFFFFF;" parent="1" source="3" target="6" edge="1">
                    <mxGeometry relative="1" as="geometry"/>
                </mxCell>
                <mxCell id="10" value="Main input logs" style="edgeLabel;html=1;align=center;verticalAlign=middle;resizable=0;points=[];fontColor=#FFFFFF;" parent="9" vertex="1" connectable="0">
                    <mxGeometry x="0.2286" y="-2" relative="1" as="geometry">
                        <mxPoint as="offset"/>
                    </mxGeometry>
                </mxCell>
                <mxCell id="3" value="Logstash" style="shape=image;verticalLabelPosition=bottom;labelBackgroundColor=default;verticalAlign=top;aspect=fixed;imageAspect=0;image=data:image/svg+xml,PHN2ZyB4bWxucz0iaHR0cDovL3d3dy53My5vcmcvMjAwMC9zdmciIGVuYWJsZS1iYWNrZ3JvdW5kPSJuZXcgMCAwIDI0IDI0IiB2aWV3Qm94PSIwIDAgMjQgMjQiPjxwYXRoIGZpbGw9IiNGM0JEMTkiIGQ9Ik0xMi41MDIsMTIuODI5SDEuMzc1VjBoMy4zNmM0LjMyLDAsNy43NjcsMy40OTEsNy43NjcsNy43NjdWMTIuODI5eiIvPjxwYXRoIGZpbGw9IiMyMzFGMjAiIGQ9Ik0xMi41MDIsMjRDNi4zNDksMjQsMS4zMzEsMTkuMDI1LDEuMzMxLDEyLjgyOWgxMS4xNzFWMjR6Ii8+PHBhdGggZmlsbD0iIzNFQkVCMCIgZD0iTTEyLjUwMiwxMi44MjloMTAuMTY3VjI0SDEyLjUwMlYxMi44Mjl6Ii8+PHBhdGggZmlsbD0iIzM3QTU5NSIgZD0iTTEyLjUwMiwxMi44MjloMi4zNTZWMjRoLTIuMzU2VjEyLjgyOXoiLz48L3N2Zz4=;" parent="1" vertex="1">
                    <mxGeometry x="130" y="260" width="100" height="100" as="geometry"/>
                </mxCell>
                <mxCell id="27" style="edgeStyle=none;html=1;fontColor=#FFFFFF;" parent="1" source="5" target="26" edge="1">
                    <mxGeometry relative="1" as="geometry"/>
                </mxCell>
                <mxCell id="5" value="PipelineÂ local_opensearch.conf" style="shape=image;verticalLabelPosition=bottom;labelBackgroundColor=default;verticalAlign=top;aspect=fixed;imageAspect=0;image=data:image/png,iVBORw0KGgoAAAANSUhEUgAAAgAAAAIACAYAAAD0eNT6AAAABHNCSVQICAgIfAhkiAAAAAlwSFlzAAAOxAAADsQBlSsOGwAAABl0RVh0U29mdHdhcmUAd3d3Lmlua3NjYXBlLm9yZ5vuPBoAACAASURBVHic7d1/fNXVnefx97m5SQjIT0VBBAFBEgJaNfxSW0GdzuyMtI4zw8zuTru2sx2tP0CZtrY79jF0trtVxyLE3zuzrdPZfcyUma5TbTv9MQpaBzGJOAokQRBR5IdSIIBAknvzPfsHRGMaku/N/XG+3+95Pf9pC8n9vm9Sct7nfG8+VwIAAAAAAAAAAAAAAAAAAAAAAAAAAAAAAAAAAAAAAAAAAAAAAAAAAAAAAAAAAAAAAAAAAAAAAAAAAAAAAAAAAAAAAAAAAAAAILqM6wAu2d2NV0jWmglz17vOAgAojPZHvjU1CFKrJSmVCpYNueVrO1xniiLfC8CTpwrADa6zAADyY1eurDpenrnLGN0lacipPz5hre4besaJe8znVrS7zBc13hYAu2vDdKVSrZIkk6o159a1Oo4EABikYw/fs9hYs0rS1NN8yA5r7B3Dbv3q06XMFWX+FoA9jY/K2pslSUaPmnPn3uI4EgAgRz2O+68L+Sk/4rbASV4WALt341gF2bckVZ36o3alg8nmnPnvuswFAAjnNMf9YXFbQFLKdQAngsyt+nDxl6QhypovuooDAAjv2MP3LD5RkdlsjP5CuS/+klRljP7ixLGqLccevmdxofPFhXcnAHZP01DZYKeksb3+6oDKKs834y4+5iAWAGAAgzjuD8vL2wL+FYDdDbdIerjvv9Qt5ry5j5Y2EQCgP3ke94fl3W0BrwqAtTalPY2tkqb3/QHaoQk7LzRmSVdpkyXX6sYW6zpDnC2bU+PVv9FcPPrq9rM7splLUtbMsNIMWc2Q7NmShkkafeo/JemYpEOn/vNdGfO6ZFuNtFWp9CtLL52+39FTQAghXt1faN78toBXP1zsnoYbZPWDfj/I2BvMufOeLFGkxKMA5IcC8KHHm5qGttszfsNae7UxWiRplvL/GWYlbZKxa61NPRtkhv1i+eUTT+SfFvkq4nF/WIm/LeDVDxe7u2G9pAX9fpBRgzl37rzSJEo+CkB+fC8AK6xNjX759ctlg89I+iNJI4p8ySOS+aGx9h/H7az+yZIlhtPAEivRcX9Yib4t4M0Pl1Njf18I+eFXMB64MCgA+fG1AHx37ZtDDg878XljzJckTXEUY4cx5n6NLPvO0unTOxxl8IqD4/6wEnlbwJsfLqfG/l4f8sOfZDxwYVAA8uNbAXi8qWloezDsFhktlzTedZ5T9sro/iE69thNdXXHXYdJoggc94eVqNsCXvxw6TH2N+zcg4DxwIVBAciPTwWgvqFlsU2pXlaTXWc5jXeMzJ1L51T/k+sgSRGx4/6wEnNbwI9BQGVly5Xbc01JwdJixQHwoQdebJm8uqHlaWv0VIQXf0k6z8r+Y31jyw9XN22Z5DpM3BVgmI8riRkilPjdRR9jf8NiPHABcAKQn6SfADzQ1Hx9yprv6OSv7cXJEVnzhWVzq9e4DhI3MTruDyu2twXSrgMUXZC5VTK5Lv7Sh+OBVxQ4EeC9+m3bKoND2fuMVVxP2kbI2O+vbmy5xoxKL+VFggPrPu4Pglgd94dxXRCkrjn24L2xuy2Q6FsAdk/TUMnk8S5/5ja779VhA38cgLAeeqnlTHsou86Y2C7+Pf1p0JZ9ZuX6LWNcB4myGB/3hxXL2wKJLgCywY369Zn/uThT2Y7PFigN4L0HN7ae25XSWhnNd52lUIx0RVm5eeHbDZsmus4SNe2PfGvq8YfufdpY85Si96t9xTDVWPPU8Yfufbr9kW9F/vkmtgBYa1OS7ijAQ33J2jVlBXgcwGsPNm2ttl3aIGm26yyFZ2rSJv3CqsbWGa6TRIFdubLq2IP3rgiC1BYl515/Lq4LgtTmYw/eu8J+d0VkTzwSWwC0t/F6nW7mfy6Mpmrv+Z/KPxDgr5Xrt04IbPBTK5vkXfIkY+wzD21sPt91EJc8OO4PK/K3BZJbAKy+VLgHM18t3GMBfnnopZYzy8q7fiEp+Quj1YSuwPzEx9cEeHjcH1ZkbwsksgCcHPs7wMz/nB5Qc+3uhssL9niAJ+q3bavsMvqRZGpcZykZq5ll5amn67dtq3QdpRQ47g8tcrcFElkApELu/ov6mECi2bbst5P0gr8cXB4cyt7nOkSxcdyfs0jdFkhcAbC7NkyXbDHu2X/a7mmqLsLjAolU39j6+5JudZ3DFWO0tL6hJdHvKcJx/6BNPfW1cypxBWAQY3/DYjwwENIDL7ZMtrJ/4zqHa9aY/+37iwIRXYkqAHbvxrGy9r8U7wL6nH13wzlFe3wgIVJp1Usa6TqHe3ZUV5dWu04B9CVRBeDk2N+cZ/7nons8MIDTeKCp+XpJzu9vRof5dH1DC18PRE5iCkD+Y3/DYjwwcDqPNzUNTVmzynWOqLFGq1eu31XMzQmQs8QUgAKM/Q2L8cDAaXTYM26VD7/vn7sp6fKjN7kOAfSUiAJQwLG/YTEeGOilftu2Sitbyn+HsWJlvvLdtW/yq3KIjEQUgIKN/Q2L8cDArwkOZf5E0rmuc0TY+KNntBfvRcpAjpJRAAo69jcsxgMD3VZYmzLGMCxrAFb2y9Za4zoHICWgABR87G/oCzMeGOg2+uWtV0ma4jpH9JkLVje2fNx1CkBKQAGQ2xG97HgASbL2M64jxIVRiq8VIiHWBaCIY3/DYjwwvHfq19sSPfK2oIxdwq8EIgpiXQCKOPY3LMYDw3tl5cc+Kab+5WJEuuLo1a5DALEtAEUf+xs6COOB4TdrLYtZrgKzyHUEILYFoARjf8NiPDC8ZoxYzHJkjbnGdQYglgWgdGN/w2I8MPz06Kvbz5Y0y3WO+LEX3d+09SzXKeC3WBaAEo79DYvxwPBSRzZziSR+rz13qQrb9THXIeC32BUAB2N/w2I8MLyTsmaG6wxxZSW+dnAqdgWg5GN/w2I8MDzEIpYPyhPcil8BcDL2NyzGA8Mz1l7oOkKMUQDgVKwKgLOxv2ExHhj+Gec6QIzxtYNTsSoAisfo3ThkBApluOsAMcbXDk7FpgBEYOxvWIwHhk9YxAaPrx2cik0BiMDY37AYDwyfnOE6QIxRAOBUHBbU6Iz9DYvxwACAiItFAYjQ2N+wGA8MX7zvOkCMHXUdAH6LfAGI3tjfsBgPDC+wiA0eXzs4FfkCEMGxv2ExHhg+YBEbPL52cCrSBSDCY3/DYjwwkm6f6wAxxtcOTkW6AER27G9YjAdG0hnzuusIMbbVdQD4LdoFINJjf8NiPDCSy7CI5cHytYNTkS0AkR/7GxbjgZFggWERGyzKE1yLbAFQskbqJum5AB9ImfRGSdZ1jhgKUoF5xXUI+C2SBSBGY3/DYjwwEmnppdP3S9rsOkcMvXrbvJoDrkPAb5EsADEa+xsW44GRXMY+6zpC3BgrvmZwLnKLbOzG/obFeGAklLUpFrMcWUoTIiByBSCGY3/DYjwwEinIDPuFpMOuc8TI4a7M8LWuQwCRKgDxHfsbFuOBkTzLL594QrI/cJ0jLozRmpNfM8CtSBWAGI/9DYvxwEikQObvXGeIDRPwtUIkRKYAJGDsb1iMB0biHK6rfl7SDtc5os5I22+/dOYLrnMAUoQKQOzH/obFeGAk0ApjAmPM/a5zRJ2V/soYw9wEREJ0CkAixv6GxXhgJNDIsu9I2uM6RoS9Y0al/9Z1CKBbJApAYsb+hsV4YCTQ0unTO6zRStc5osoY81dLp0/vcJ0D6BaJAiA/R+X6+JyRcFU69qiMdrrOET32jeFHK/+X6xRAT84LQALH/obFeGAkzk11dcdTNpXgX+UdHGO07HOLprS7zgH05LwAJHDsb1iMB0Yi3T5nxr8Y6SnXOSLD6MmldTN/7DoG0JvThTexY3/DYjwwEsqa4HbJtLnOEQGHskF2mesQQF/c7ryTO/Y3LMYDI5GW1dW+bQP7Gfn9VsFWgf2TP5s7e5frIEBfnBWA5I/9DYvxwEimO+bV/MhaPeg6h0Orls2b+aTrEMVkjf2UGAA1GDtOfe2ccncCkPyxv2ExHhiJlRqd/oqk9a5zlJw1vzw0NEj8vI9ht3716arO8lnW6huSeJHjwE5Yq29UDTtRO+zWrz7tOoxxcVFrbUp7Glvlw+S/MKx2aMLOC41Z0uU6SqGtbmzx+Qg4b8vm1Dj5N1pIjze9MbJdnc/J6mLXWUrBSFuymeATyy+vPeg6Sym1P/KtqUGQWi3pOtdZIupHqVSwbMgtX4vMiYmbEwBfxv6GxXhgJNhNdRcc7upM/Y6kt1xnKYF3rAl+27fFX5KG3PK1HUNvu2sxtwV+zQ5r7KeG3nbX4igt/pKrAuDV2N+wGA+M5Fp++YzdVuY3Jb3tOksRvV0W6JpldbVJfo4D4rbAByJ13N+Xkh8vnhz7a3k3rL5dYSbMTdT9Um4B5CcJtwB6eqCpeXzKmp9Kush1loIyas4G2d/iFf8f5fFtgcgd9/fFxQkAu//T42uDRLuzbuberkywSEl6YaA1vyyvyFzJ4v/rPLwtENnj/r6UtAB4PPY3LMYDI/GWX1578ND7+66yMvcq3nMCrLWqPzSs69pbLrrokOswUebBbYHIH/f3paTHi3ZP46Oy9uZSXjN2jB41585NzHwEbgHkJ2m3AHpb3dj6acl+V9Jo11lydMQa81/vqKv+R9dB4iaBtwVicdzfl5L9cLF7N45VkH1Lfk/+C6Nd6WCyOWf+u66DFAIFID9JLwCS9NDG5vODLlNvpXicDho9mQ2yyzjyz8+xh+9ZbKxZJWmq6yyDtMMae0ecdvy9le4WAGN/w2I8MLxy26Uz31o6p+bTNtBiSW+6ztOPHcbY65bV1dzA4p+/GN8WiOVxf19Ksruwe5qGygY7xeS/sA6orPJ8M+7iY66D5IsTgPz4cALQ08r1u6rS5UdvssZ8SVYTXOc55R1Zc/+IY5WP85a+xRGj2wKxPe7vS2kKwO6GWyQ9XIprJYbVLea8uY+6jpEvCkB+fCsA3eq3batUW/ZGK/tlyVzgIoORtlvprw4NDZ5YUVvb6SKDbyJ8WyD2x/19KfoPF8b+DlJCxgNTAPLjawHoafXLLZfZLn3WGP1nSWcW+XKHJfOUUfC92+tqnjHG8P/fErMrV1YdL8/cZYzukjTEcZwT1uq+oWecuMd8bkXiTn+KXwD2NNwgqx8U+zqJZOwN5tx5sX43MQpAfigAH/ru2jeHHB1+4hprzTWSWSTZi5T/65gCSa9KWivZZ0a8X/Usx/zREIHbAok67u9L8QvA7ob1khYU+zqJZNRgzp07z3WMfFAA8kMBOL37m7aetfeHv9hfMWqEKkePVMWoESobWqmy8nKlKiuUSqclSUE2q6CjU12ZjLqOtavz8FF1HDqszkNHNGXxNWfdNq/mgOOngn44uC2QyOP+viT+h8vNN96d1wL02BPfTPzXKMn4/icb318/lOi2QKKP+/uSdh0AAID+mOXLT0ha0f7It75XpNsCiT/u7wsFAAAQC6cW6MUFvC3gzXF/X9y8HTAAAIPUPUToZ3s6lQly//xMYPWzPZ1KwjCffFAAAACxY5YvP/GzPR26b8v7aj6cDf15zYezum/LMf1sT4d8udd/OtwCAADE1oEOq7/ZdkK1o9K6fuIQnVnZ9+s6D3RY/fOudm1pC18Wko4CAACIvS1tWb1+5JiuHlehq8dVqPzU+XYmsHp2X0bP7usY1O2CJKMAAAAS4eS9/Q41HejU7046+duCT77drgMdjCPpCwUAAJAo3bcF0D9eBAgAgIcoAAAAeIgCAACAhygAAAB4iAIAAICHKAAAAHiIAgAAgIcoAAAAeIgCAACAhygAAAB4iAIAAICHKAAAAHiIAgAAgIcoAAAAeIgCAACAhygAAAB4iAIAAICHKAAAAHiIAgAAgIcoAAAAeIgCAACAhygAAAB4iAIAAICHjOsAxXbzjXdb1xkAANHz2BPfTPwa2B9OAAAA8BAFAAAAD1EAAADwEAUAAAAPUQAAAPAQBQAAAA9RAAAA8BAFAAAAD1EAAADwEAUAAAAPUQAAAPAQBQAAAA9RAAAA8BAFAAAAD1EAAADwkNfvhQwk3c033m3z+Xzf3y8dSDJOAAAA8BAFAAAAD1EAAADwEAUAAAAPUQAAAPAQBQAAAA9RAAAA8BAFAAAAD1EAAADwEAUAAAAPUQAAAPAQBQAAAA9RAAAA8BAFAAAAD1EAAADwEAUAAAAPUQAAAPAQBQAAAA9RAAAA8BAFAAAAD1EAAADwEAUAAAAPUQAAAPAQBQAAAA9RAAAA8BAFAAAAD1EAAADwEAUAAAAPUQAAAPAQBQAAAA9RAAAA8BAFAAAAD1EAAADwEAUAAAAPUQAAAPAQBQAAAA9RAAAA8BAFAAAAD1EAAADwkCn2BQ584U5b7GsAAJA0Z/71A0VdozkBAADAQxQAAAA8RAEAAMBDFAAAADxEAQAAwEMUAAAAPEQBAADAQxQAAAA8RAEAAMBDFAAAADxEAQAAwEMUAAAAPEQBAADAQxQAAAA8RAEAAMBDFAAAADxEAQAAwEMUAAAAPEQBAADAQxQAAAA8RAEAAMBDFAAAADxEAQAAwEMUAAAAPEQBAADAQxQAAAA8RAEAAMBDFAAAADxEAQAAwEMUAAAAPEQBAADAQ2nXAZKsfEKFJCmzu9Nxkvga/vnLXEdw6uh3XnYdIdI6qqr07vjxahs9WkdGjdKRkSPVWVmpzopKZctP/nhLZ7Kq6OxQRUeHRrS1aWRbm0YeOqRz9u1T5YkTjp8B+pKeNFZVC2fJpMt0Yt1mZXbscx0pkSgARTRkTpUkCgBQSAfGnq2d0y7Q3gkT1DZ6tGRMvx/fWVmhzsoKafhwHTzrrA//wlqNOnRI49/ZrSnbt2vMr/YXOTkG0r3wl08d98GfDf/sImXf3k8RKAIKQJGUT6j44ASgfEIFJQDIQ6a8QttqavTGjAt1ePTowjyoMWobM0ZtY8ao5aLZGtnWpgtat2p6S7PKM5nCXAOh9LXw9/57ikDhUQCKpHv33/3fKQBA7joqK9U6e7a21s46uYsvosOjRmnj/HnafMklqt68SdWbN6mig3+3xTTQwt/Xx1MECocCUAQ9d/89/zclAAjJGO2YPk0b581Xe1XVwB9fQJ2VFXrtssu0ddYszX55o2Zs2SxjbUkzJF2uC39fn08RyB8FoAh67v57/hkFABjY0ZEjtH7hIu0/5xynOToqK9V0+QK9NXWKLl+3TsOPHHGaJwnyXfj7ejyKwOBRAAqs9+6/959TAoDT2zV5sl68amHRj/tzsX/cOP3k935P855/XpPfeMN1nFgq9MLf1+NTBHJHASiwvnb/Pf+OAgD8OmuMXp6/QK2zZ7mO0qdMebleuOYaHRh7ti59aQO3BEIq9sLf1/UoAuFRAArodLv/3n9PCQA+1FWW0otXLdTOadNcRxlQy0Wz1T60SgvWrVMqCFzHiaxSL/x9XZ8iMDAKQAH1t/vv+TEUAOCkrrKUnv+N39TuSRNdRwntzWnT1FlRoat+/nNKQC+uF/7eKAL9owAUyEC7/94fRwmA94zRSx+/KlaLf7fdkyZp/cKFumLtWm4HKHoLf28Ugb5RAAokzO6/58dSAOC7pvkLtOPC6a5jDNrOadM09PgxXbrhJddRnIn6wt8bReCjKAAFEHb33/vjKQHw1VtTp0b2BX+5aL7oYo351QFN3r7ddZSSitvC3xtF4CQKQAHksvvv+TkUAPjo6IgR2vCJT7iOUTAvXXmlznzvPS/mBMR94e/N9yLA2wHnKdfdf76fB8SaMVq/aJEyFcn5/36mokIvXrVwwDclirPuhXLE569NzOLfU9Kf3+lwApCnwez+e34upwDwyfYZM5xP+CuG98aP047p0zX19dddRymopO34B+LbiQAnAHnIdxfPKQB80lFZqX+fO9d1jKJ5ed68SE0wLATfdsTduotA0lEA8pDP7r+QjwHEQevs2WofMsR1jKLpqKrS1tr4v7AR/qAADFKhdu+cAsAHmfIKLxbH1tmzlSkvdx0DCIUCMEiF3LlzCoCk21ZTk7jj8b50VFZqe0216xhAKBSAQSj0rp1TACRdnAf+5Gp7dY3rCEAoFIBBKMaOnVMAJNWBsWerbcwY1zFK5vCoUTp41pmuYwADogDkqFi7dU4BkFQ7p13gOkLJxeGdDQEKQI6KuVPnFABJtPe881xHKLl9E/x7zogfCkAOir1L5xQASdNRVaW2UaNcxyi5g2PGJPpXHpEMFIAclGKHzikAkuTd8eMTPSL3tIzR/vHjXacA+kUBCKlUu3NOAZAkbaNHu47gjM/PHfFAAQiplDtzTgGQFEc8PP7vdmTUSNcRgH5RAEIo9a6cUwAkxZER/i6CR0b6+9wRDxSAEFzsyDkFQBJ0ePxCuI4h/BtGtFEABuBqN84pAJIgW+HvXPws7wmAiKMADMDlTpxTAMRdNu3vIsibAiHqKAD9cL0Ld319AEByUQD6EYUdeBQyAIOVzmZcR3CmPOPvc0c8UABOIyq776jkAAYj3envIpimACDiKACnEaWdd5SyALmobG93HcGZyvYTriMA/aIA9CFqu+6o5QHCGnG4zXUEZ0a2HXYdAegXBaAPUdxxRzETMJARh/1dBH1+7ogHCkAvUd1tRzUX0J9RBw+6juDMSI+fO+KBAtBLlHfaUc4G9OWcffska13HKDljrcbu2+c6BtAvCkAPUd9lRz0f0FvliRMadeiQ6xglN/rAQQ3x+AWQiAcKQA9x2GHHISPQ0/jdu11HKLlxu99xHQEYEAXglLjsruOSE+g2Zdt21xFKbvJ2/54z4ocCcEqcdtZxygqM+dV+r14MOLKtTWMOHHAdAxgQBUDx21XHLS8w9fVtriOUzLTWFtcRgFAoAIrnjjqOmeGv6S3NqujodB2j6Co7OjStpdV1DCAU7wtAXHfTcc0NP5VnMpqxZbPrGEVXvWkTbwKE2PC+AMR5Jx3n7PBPzabXNOREcufjDzlxQtWbk19ykBxeF4C476Ljnh9+qejo1CUNja5jFM1lGzaovDNZtzmOfOdfldnh30Cj7Nv7dfR7a13HKLq06wAuJWEHPWROlTK7k/VDB8l1wetbtX3Ghdo/bpzrKAV1zr69mpLAX/3rXgjTk8aqauEslU9N1vett+zb+3Vi3WZvSo+3JwBJ2T0n5XnAE9bq8nXrErVTrujo1Px1zyV65HF3EUjqiUDSn9/peHsCkITdfzdOARAnw48c0YLnn9fz117rOkpBLHj+OQ0/csR1jJJI2omAbzv+3rwsAEnbNXc/H0oA4mLSjh2qeW2TWi6a7TpKXmpffVUT33zTdYySi3sR8H3h7+ZlAUjS7r8bpwCIm8te2qCOIZXaceGFrqMMypTt2/WxhgbXMZyKWxFg4f8o7wpA0nb/3TgFQOxYq/nPP6+OIVXaPWmi6zQ5Oe+tt7Vg3TqZBN/3z0XUiwALf9+8KwBJ3P134xQAcZMKAl31s5/qpU98XG/MqHYdJ5Sp27Zp/nPPKRUErqNETtSKAAt//7wqAEnd/XfjFABxlLJWC57/pSo7OtR80cWu45yetap97TVd0tCQ6Ff8F4LrIsDCH45XBSDJu/9unAIglqzVpRte0th97+rFqxaqszJaRb0806n5z/1S5+94w3WUWCl1EWDhz403BSDpu/9unAIgzibu3KlRB/+fXrxqod4bH437yOfs26sFa9fpjKNHXUeJrWIXARb+wfGmAPiw++/GKQDibPiRI/rkj57WjunT9PK8+eqocvNvt7KjQx9raND01laO/Auk0EWAhT8/XhQAX3b/3TgFQOxZq6mvb9N5b72lrbWz1Dp7tjoqK0ty6cqOdlVv2qzqzZsTNbEwSvItAiz8heFFAfBp99+NUwAkQUVHp2Zv3KiaTZu0raZab8yoVtvo0UW51qiDB3XB1q2a3tqqNG/pWxK5FgEW/sJKfAHwbfffjVMAJEk6k1HNa5tU89omHTzrTO2cNk17zztPbaPHyBozqMc01mr0wYMa9847mrx9u8YcOFDg1AhroCLAwl8ciS8APu7+u3EKgCQa86sDGvOrA5JeUvuQIdo/frwOjx6tw6NG6fCokcpUVKqzslLZdLkkKZ3NqKKjQ+WdHRrZ1qaRbYc18uBBjd23T0Pa290+GXzEB0Vg8tkauvDkmOjj6zYpu/M9x8mSaXDVOQcHvnAnr54BACBHZ/71A0Vdo719O2AAAHxGAQAAwEMUAAAAPEQBAADAQxQAAAA8RAEAAMBDFAAAADxEAQAAwEMUAAAAPEQBAADAQxQAAAA8RAEAAMBDFAAAADxEAQAAwEMUAAAAPEQBAADAQxQAAAA8RAEAAMBDFAAAADxEAQAAwEMUAAAAPEQBAADAQxQAAAA8RAEAAMBDFAAAADxEAQAAwEMUAAAAPEQBAADAQxQAAAA8RAEAAMBDFAAAADxkXAcAUDw333i3zefzH3vim/yMABKKEwAAADxEAQAAwEMUAAAAPEQBAADAQxQAAAA8RAEAAMBDFAAAADxEAQAAwEMUAAAAPEQBAADAQxQAAAA8RAEAAMBDFAAAADxEAQAAwEMUAAAAPEQBAADAQxQAAAA8RAEAAMBDFAAAADxEAQAAwEMUAAAAPEQBAADAQxQAAAA8RAEAAMBDFAAAADxEAQAAwEMUAAAAPEQBAADAQxQAAAA8RAEAAMBDFAAAADxEAQAAwEMUAAAAPEQBAADAQxQAAAA8RAEAAMBDFAAAADxEAQAAwEMUAAAAPEQBAADAQxQAAAA8RAEAAMBDFAAAADxEAQAAwEMUAAAAPEQBAADAQxQAAAA8RAEAAMBDFAAAADxEAQAAwEMUAAAAPEQBAADAQxQAAAA8RAEAAMBDFAAAADxkXAcAUFhr1tiydy5onlIWmAvf+7dXflw+argqhp+hVEW5THlaZeVppSoqlCpPS5KCTFZBZ6e6MlnZTFZBZ0adR99Xpu2ozr7ikt8xpnzruB3Tdi5ZYroczEUd4gAADX1JREFUPzUABUQBAGKufsO2EUplr7JGiyQtlFQrqaLAl+k00mYrrbOB1qZs+vml86cfKfA1AJQQBQCIoVUvt15krP0jWV0tqU5SWYkjZCW9bKRnjNE/3F5Xs6nE1weQJwoAEBMr128ZU1ae+n0rfdZIV7jO8xFGzUb2e2WB/dtb59bucx0HwMAoAEDE1Tc2X2uVulOyn5SUdp1nAFnJ/Fy2a+WyubXPuA4D4PQoAEAEWWvNg42t11npv8lovus8g/SKNeZbyy6b8U/GGOs6DICPogAAEWKtNasbW5YYY/5c0mzXeQrC6FUr8z8oAkC0UACAiFjV2DrDyD4k6VrXWYrCml/KBLcsmzNzs+soACgAgHOPNzUNbbfDviLpayr8r+9FTdZaPdLRae6+68rqo67DAD6jAAAOrXqp5TqT0qOSznOdpZSMzC6Z4ItL62b+2HUWwFcUAMCBFWvXpkefMe5uSV+XvyO5rbV6sG1Y8OUVtbWdrsMAvqEAACW2umnLJGNT/2ClBa6zRIGVmqzK/vDOORfucJ0F8ImvOw/AiQeamq+XLXuVxf9DRqpLqatpVWPrp1xnAXxCAQBKZHVj860pa34g2VGus0TQaCP7z6ubWpa7DgL4ggIAlEB9U/NdknlI/Jvrj5HVt1c1tt7jOgjgA14DABTRmjW2bM+U1oeNdJPrLHFijZ5oO7rvCysWLcq6zgIkFbsRoEjWrLFl+6a0/j2Lf+6M1Y2jh5/zf9essaV+l0PAGxQAoAistWbf1NZHrfQHrrPEljVL9k5pfcR1DCCpKABAETzY1PpNa/UF1zkS4E9XNbV8w3UIIIl4DQBQYKsamm8xxjzsOkeiWHPHsrnVq13HAJKEAgAU0ANNzdef/FU/TtcKLDBW1y+dW/O06yBAUlAAgAJZ3bRlkmzqFUljXGdJqENBVpfeuaBmp+sgQBKwSwEK4PGmpnJjU/8gFv9iGp1K2++v2LIl6e+YCJQEBQAogBP2jPsY71sKZu6o4+abrlMAScAtACBP9Q0ti63RD8W/p1Kxkr1u2ZyZP3EdBIgzfmABeXi8qWloux3WLOl811l8YmR2lQ3tmnlrbe37rrMAccUtACAPHcGwvxSLf8lZ2YnZY6k/d50DiDNOAIBBWtmwpbbMpF6RVO46i6c6g1TZx+687MIW10GAOOIEABgEa61Jm9RDYvF3qSIVdD1mrWUjAwwCBQAYhNWNLUustNB1DugTDza2/q7rEEAcUQCAHFlrjTGG+88RYY35OqcAQO4oAECO6pu2fkrSbNc50M1+rL6p5T+4TgHEDQUAyJn9iusE6MWar7uOAMQNBQDIQX1j87WSLnedA70YzV/d1LrIdQwgTigAQA6sUne6zhA1QSarw61vuI4hBXa56whAnPDCGSCkVRs2nWPK0u9ISrvOEhVBJqtdP16n47vf1ZmXztTZCy5xGSdru7Ln3TF/9rsuQwBxwQkAEFY6/cdi8f9Az8Vfkg5sbNZ7L77iMlLapMr/yGUAIE4oAEBIRvqM6wxR0Xvx7+a8BBjL9wgIiVsAQAirG5tnSWaT6xxRcLrFvyeXtwNSRhfdXlfD9woYACcAQAhG5j+6zhAFYRZ/ye1JQBCYP3ByYSBmKABACFb2WtcZXAu7+HdzVgKMvab0FwXih1sAwAAeb3pjZLvtPCCpzHUWV3Jd/HtycDsga7rSZy6dP/1IKS8KxA0nAMAAOoLOT4jFf1CLv+TkJCBtyzJXlvKCQBxRAIABWCNvJ8zlu/h3K3kJMMbb7xkQFgUAGNhC1wFcKNTi362kJcD6W9qAsCgAQD/WrLFlkma6zlFqQSarXU+vLdji3+3Axma1tZRkbPCsU987AKdBAQD68c4FzVMkVbrOUUof7Pz3vlfwxx46fqxGTJtU8MftQ+W7528tyYWAuKIAAP1IWzPDdYZSKvSxf09Dx4/VxMWLlCovL/hj9yUw8up7B+SKAgD0w8qfApCkxf8Ub753wGBQAID+WD8WkQQu/pICL753wGBRAIB+GKvzXWfo7XDrGwoy2YI9XrFe8CdJQ8efrYmLr3aw+EvWaHLJLwrECAUA6IeVRrrO0NP+hte055kNevupZxVkMnk/XrFf8Ddx8UKlyl29g7IZ4ejCQCxQAID+GJ3hOkK3/Q2v6VeNJ9/k7sS+/Xr7qbV5lYBkHvt/yEjDnV0ciAEKANC/SCwiPRf/bvmUgKQv/qdE4nsHRBUFAOif80Wkr8W/22BKgCeLvxSB7x0QZRQAoH9ObwH0t/h3y6UEeLT4SxQAoF8UACCiwiz+3cKUAM8WfwADoAAA/XvfxUVzWfy79VcCPF38j7oOAEQZBQDoX8kXkcEs/t36KgGeLv4SBQDoFwUA6F9JF5F8Fv9uPUuAx4u/RAEA+uVqQgcQC0Y6akt0rUIs/t1O7NuvXU+vk6QiDfk5+9TiH90fIZYCAPQruv96gSiwOiJT/Mu0tbxRsMW/WzEWfikei/9J9ojrBECUcQsA6Ic1eqsU1xkx7XwNnXBOKS6VF/fjfcMzVjtdZwCijAIA9MdoaykukypPa+LvLIx0CYjBPf9eUiX53gFxRQEA+mFkS7aIRLkExG/xl6TSlDcgrigAQL/KW0t5tSiWgJgu/gq6bEm/d0DcUACAfozbMW2npI5SXjNKJSCui7+k9gm7qne5DgFEGQUA6MeSJaZLUnOprxuFEhDjxV+Stpz63gE4DQoAMLC1Li7qsgTEfPGXlX3WdQYg6igAwABs4KYASG5KQNwXf0kqU5mz7xkQFxQAYAAdGfOcpKyr65eyBCRh8ZeUPd5hX3AdAog6CgAwgLuurD4q6WWXGUpRAhKy+MtKL536ngHoBwUACMX+q+sExSwBSVn8JclYw/1/IAQKABBCl7V/7zqDVJwSkKTFX5JkgjWuIwBxQAEAQlg+t3aLZP7ddQ6psCUgaYu/lZqWzZm52XUOIA4oAEBYxv6d6wjdClECkrb4S1LKmMh8j4CoowAAIVWUl/8fOfxtgN7yKQFJXPwlZYNs5vuuQwBxQQEAQvrixdPek8zPXefoaTAlIKGLvyT9yx3zZ7/rOgQQFxQAIBe2a6XrCL3lUgISvPgrkCL3vQGizLgOAMTN6saWf5N0uescvQWZrHb9eJ2O7+57E5zkxV9WG5bNrVngOgYQJ5wAADkyVve4ztCX/k4CEr34S0qZ1F+6zgDEDScAQI6stebBptYmK13qOktfep8EJH3xl8y/L62bcakxxrpOAsQJJwBAjowxNjAmkqcA0kdPApK/+EuBCb7B4g/kjhMAYBCstaa+qfUZSYtcZzmdIHPyNxZT5WnHSYrquaV11YsoAEDuOAEABsEYY01XcJukjOssp5MqTyd98e8MUmVfZPEHBocCAAzS0vm1zVZ2lescvjLS/XdedmGL6xxAXFEAgDxUmeMrZLTTdQ4Pvd1R0fk/XYcA4owCAOThprq640b2NkkcQ5eOlTU3ffnii4+5DgLEGQUAyNPSupk/NpYpdKViZe5bNrf6p65zAHFHAQAK4OCxfV+VtN51Dg+8VGXe/7rrEEAS8GuAQIF8u2HTxLRJvyLpTNdZEupQWZm95LZLZ77lOgiQBJwAAAXyZ3Nn77Iyn5cUuM6SQF2S/WMWf6BwKABAAd0xp/opGXOr6xyJY3Tnsjkzf+I6BpAkFACgwJbVVT9mjXhzmgIxVn+xrK7mQdc5gKThNQBAkaxubKmXdLvrHHFmpcfvmFNzs+scQBJxAgAUyfg3q++UsWtc54grI/P9c9+s5nYKUCQUAKBIliwxXeN31PwnyT7mOksMfffg+3v/eMkS0+U6CJBU3AIASqC+qfkua6P7FsJRYmXuvWNO9Vdd5wCSjgIAlMiqhuZbjDEPipO30+mSMbctq6vmxAQoAQoAUEL1DS2LrdETksa4zhIxByT7WX7VDygdCgBQYt9u2DSxzKT/3khXuM4SEY2pwPzh7fOq33QdBPAJR5FAif3Z3Nm72t7ft1DSN+T31EBrreqHmGNXsPgDpccJAODQ6sbm35bMo5Imuc5SYm/Jmpt5Vz/AHU4AAIeWzZn5kyHmWI1OngZ0uM5TAhlrVZ8eGsxi8Qfc4gQAiIjVG5qnq8w8JOmTrrMUyXNdNrh1+dzaLa6DAKAAAJFT39BygzW6W9IlrrMUgpE2dhn73++sm/nPrrMA+BAFAIio1U1br7RB8A1jdLXrLIO03ljdc/uc6h8ZY6zrMAA+igIARNzqptZFCuxyGf2WpLTrPAPIyuqnSpmVy+qq17oOA+D0KABATKxcv2VMWXnq96302cjNEDBqNrLfC7JdT9wxf/a7ruMAGBgFAIihlQ1bastU9ofG2GutNEelPxnISmqwRv+aygbfXzq/trnE1weQJwoAEHP3vtA6fEhl8HFjzdXWaKGkWZIqC3yZDittMkbrZO3a9FD7/K21te8X+BoASogCACTMmjW2bPeUbeenbHChMUG1lWZIZrKkETIaJqvhkkZJOuPUp7wvqU1GR63V+0Y6KmvflFJbJW1NWW09MHfGWyuM8XlqIQAAAAAAAAAAAAAAAAAAAAAAAAAAAAAAAAAAAAAAAAAAAAAAAAAAAAAAAAAAAAAAADzw/wGQL3IJkgPy/QAAAABJRU5ErkJggg==;" parent="1" vertex="1">
                    <mxGeometry x="-65" y="634.81" width="100" height="100" as="geometry"/>
                </mxCell>
                <mxCell id="13" style="edgeStyle=none;html=1;fontColor=#FFFFFF;" parent="1" source="6" target="7" edge="1">
                    <mxGeometry relative="1" as="geometry">
                        <mxPoint x="340" y="480" as="targetPoint"/>
                    </mxGeometry>
                </mxCell>
                <mxCell id="21" style="edgeStyle=none;html=1;fontColor=#FFFFFF;startArrow=none;" parent="1" source="33" target="5" edge="1">
                    <mxGeometry relative="1" as="geometry"/>
                </mxCell>
                <mxCell id="24" style="edgeStyle=none;html=1;fontColor=#FFFFFF;" parent="1" source="6" target="8" edge="1">
                    <mxGeometry relative="1" as="geometry"/>
                </mxCell>
                <mxCell id="6" value="Pipeline main.conf" style="shape=image;verticalLabelPosition=bottom;labelBackgroundColor=default;verticalAlign=top;aspect=fixed;imageAspect=0;image=data:image/png,iVBORw0KGgoAAAANSUhEUgAAAgAAAAIACAYAAAD0eNT6AAAABHNCSVQICAgIfAhkiAAAAAlwSFlzAAAOxAAADsQBlSsOGwAAABl0RVh0U29mdHdhcmUAd3d3Lmlua3NjYXBlLm9yZ5vuPBoAACAASURBVHic7d1/fNXVnefx97m5SQjIT0VBBAFBEgJaNfxSW0GdzuyMtI4zw8zuTru2sx2tP0CZtrY79jF0trtVxyLE3zuzrdPZfcyUma5TbTv9MQpaBzGJOAokQRBR5IdSIIBAknvzPfsHRGMaku/N/XG+3+95Pf9pC8n9vm9Sct7nfG8+VwIAAAAAAAAAAAAAAAAAAAAAAAAAAAAAAAAAAAAAAAAAAAAAAAAAAAAAAAAAAAAAAAAAAAAAAAAAAAAAAAAAAAAAAAAAAAAAILqM6wAu2d2NV0jWmglz17vOAgAojPZHvjU1CFKrJSmVCpYNueVrO1xniiLfC8CTpwrADa6zAADyY1eurDpenrnLGN0lacipPz5hre4besaJe8znVrS7zBc13hYAu2vDdKVSrZIkk6o159a1Oo4EABikYw/fs9hYs0rS1NN8yA5r7B3Dbv3q06XMFWX+FoA9jY/K2pslSUaPmnPn3uI4EgAgRz2O+68L+Sk/4rbASV4WALt341gF2bckVZ36o3alg8nmnPnvuswFAAjnNMf9YXFbQFLKdQAngsyt+nDxl6QhypovuooDAAjv2MP3LD5RkdlsjP5CuS/+klRljP7ixLGqLccevmdxofPFhXcnAHZP01DZYKeksb3+6oDKKs834y4+5iAWAGAAgzjuD8vL2wL+FYDdDbdIerjvv9Qt5ry5j5Y2EQCgP3ke94fl3W0BrwqAtTalPY2tkqb3/QHaoQk7LzRmSVdpkyXX6sYW6zpDnC2bU+PVv9FcPPrq9rM7splLUtbMsNIMWc2Q7NmShkkafeo/JemYpEOn/vNdGfO6ZFuNtFWp9CtLL52+39FTQAghXt1faN78toBXP1zsnoYbZPWDfj/I2BvMufOeLFGkxKMA5IcC8KHHm5qGttszfsNae7UxWiRplvL/GWYlbZKxa61NPRtkhv1i+eUTT+SfFvkq4nF/WIm/LeDVDxe7u2G9pAX9fpBRgzl37rzSJEo+CkB+fC8AK6xNjX759ctlg89I+iNJI4p8ySOS+aGx9h/H7az+yZIlhtPAEivRcX9Yib4t4M0Pl1Njf18I+eFXMB64MCgA+fG1AHx37ZtDDg878XljzJckTXEUY4cx5n6NLPvO0unTOxxl8IqD4/6wEnlbwJsfLqfG/l4f8sOfZDxwYVAA8uNbAXi8qWloezDsFhktlzTedZ5T9sro/iE69thNdXXHXYdJoggc94eVqNsCXvxw6TH2N+zcg4DxwIVBAciPTwWgvqFlsU2pXlaTXWc5jXeMzJ1L51T/k+sgSRGx4/6wEnNbwI9BQGVly5Xbc01JwdJixQHwoQdebJm8uqHlaWv0VIQXf0k6z8r+Y31jyw9XN22Z5DpM3BVgmI8riRkilPjdRR9jf8NiPHABcAKQn6SfADzQ1Hx9yprv6OSv7cXJEVnzhWVzq9e4DhI3MTruDyu2twXSrgMUXZC5VTK5Lv7Sh+OBVxQ4EeC9+m3bKoND2fuMVVxP2kbI2O+vbmy5xoxKL+VFggPrPu4Pglgd94dxXRCkrjn24L2xuy2Q6FsAdk/TUMnk8S5/5ja779VhA38cgLAeeqnlTHsou86Y2C7+Pf1p0JZ9ZuX6LWNcB4myGB/3hxXL2wKJLgCywY369Zn/uThT2Y7PFigN4L0HN7ae25XSWhnNd52lUIx0RVm5eeHbDZsmus4SNe2PfGvq8YfufdpY85Si96t9xTDVWPPU8Yfufbr9kW9F/vkmtgBYa1OS7ijAQ33J2jVlBXgcwGsPNm2ttl3aIGm26yyFZ2rSJv3CqsbWGa6TRIFdubLq2IP3rgiC1BYl515/Lq4LgtTmYw/eu8J+d0VkTzwSWwC0t/F6nW7mfy6Mpmrv+Z/KPxDgr5Xrt04IbPBTK5vkXfIkY+wzD21sPt91EJc8OO4PK/K3BZJbAKy+VLgHM18t3GMBfnnopZYzy8q7fiEp+Quj1YSuwPzEx9cEeHjcH1ZkbwsksgCcHPs7wMz/nB5Qc+3uhssL9niAJ+q3bavsMvqRZGpcZykZq5ll5amn67dtq3QdpRQ47g8tcrcFElkApELu/ov6mECi2bbst5P0gr8cXB4cyt7nOkSxcdyfs0jdFkhcAbC7NkyXbDHu2X/a7mmqLsLjAolU39j6+5JudZ3DFWO0tL6hJdHvKcJx/6BNPfW1cypxBWAQY3/DYjwwENIDL7ZMtrJ/4zqHa9aY/+37iwIRXYkqAHbvxrGy9r8U7wL6nH13wzlFe3wgIVJp1Usa6TqHe3ZUV5dWu04B9CVRBeDk2N+cZ/7nons8MIDTeKCp+XpJzu9vRof5dH1DC18PRE5iCkD+Y3/DYjwwcDqPNzUNTVmzynWOqLFGq1eu31XMzQmQs8QUgAKM/Q2L8cDAaXTYM26VD7/vn7sp6fKjN7kOAfSUiAJQwLG/YTEeGOilftu2Sitbyn+HsWJlvvLdtW/yq3KIjEQUgIKN/Q2L8cDArwkOZf5E0rmuc0TY+KNntBfvRcpAjpJRAAo69jcsxgMD3VZYmzLGMCxrAFb2y9Za4zoHICWgABR87G/oCzMeGOg2+uWtV0ma4jpH9JkLVje2fNx1CkBKQAGQ2xG97HgASbL2M64jxIVRiq8VIiHWBaCIY3/DYjwwvHfq19sSPfK2oIxdwq8EIgpiXQCKOPY3LMYDw3tl5cc+Kab+5WJEuuLo1a5DALEtAEUf+xs6COOB4TdrLYtZrgKzyHUEILYFoARjf8NiPDC8ZoxYzHJkjbnGdQYglgWgdGN/w2I8MPz06Kvbz5Y0y3WO+LEX3d+09SzXKeC3WBaAEo79DYvxwPBSRzZziSR+rz13qQrb9THXIeC32BUAB2N/w2I8MLyTsmaG6wxxZSW+dnAqdgWg5GN/w2I8MDzEIpYPyhPcil8BcDL2NyzGA8Mz1l7oOkKMUQDgVKwKgLOxv2ExHhj+Gec6QIzxtYNTsSoAisfo3ThkBApluOsAMcbXDk7FpgBEYOxvWIwHhk9YxAaPrx2cik0BiMDY37AYDwyfnOE6QIxRAOBUHBbU6Iz9DYvxwACAiItFAYjQ2N+wGA8MX7zvOkCMHXUdAH6LfAGI3tjfsBgPDC+wiA0eXzs4FfkCEMGxv2ExHhg+YBEbPL52cCrSBSDCY3/DYjwwkm6f6wAxxtcOTkW6AER27G9YjAdG0hnzuusIMbbVdQD4LdoFINJjf8NiPDCSy7CI5cHytYNTkS0AkR/7GxbjgZFggWERGyzKE1yLbAFQskbqJum5AB9ImfRGSdZ1jhgKUoF5xXUI+C2SBSBGY3/DYjwwEmnppdP3S9rsOkcMvXrbvJoDrkPAb5EsADEa+xsW44GRXMY+6zpC3BgrvmZwLnKLbOzG/obFeGAklLUpFrMcWUoTIiByBSCGY3/DYjwwEinIDPuFpMOuc8TI4a7M8LWuQwCRKgDxHfsbFuOBkTzLL594QrI/cJ0jLozRmpNfM8CtSBWAGI/9DYvxwEikQObvXGeIDRPwtUIkRKYAJGDsb1iMB0biHK6rfl7SDtc5os5I22+/dOYLrnMAUoQKQOzH/obFeGAk0ApjAmPM/a5zRJ2V/soYw9wEREJ0CkAixv6GxXhgJNDIsu9I2uM6RoS9Y0al/9Z1CKBbJApAYsb+hsV4YCTQ0unTO6zRStc5osoY81dLp0/vcJ0D6BaJAiA/R+X6+JyRcFU69qiMdrrOET32jeFHK/+X6xRAT84LQALH/obFeGAkzk11dcdTNpXgX+UdHGO07HOLprS7zgH05LwAJHDsb1iMB0Yi3T5nxr8Y6SnXOSLD6MmldTN/7DoG0JvThTexY3/DYjwwEsqa4HbJtLnOEQGHskF2mesQQF/c7ryTO/Y3LMYDI5GW1dW+bQP7Gfn9VsFWgf2TP5s7e5frIEBfnBWA5I/9DYvxwEimO+bV/MhaPeg6h0Orls2b+aTrEMVkjf2UGAA1GDtOfe2ccncCkPyxv2ExHhiJlRqd/oqk9a5zlJw1vzw0NEj8vI9ht3716arO8lnW6huSeJHjwE5Yq29UDTtRO+zWrz7tOoxxcVFrbUp7Glvlw+S/MKx2aMLOC41Z0uU6SqGtbmzx+Qg4b8vm1Dj5N1pIjze9MbJdnc/J6mLXWUrBSFuymeATyy+vPeg6Sym1P/KtqUGQWi3pOtdZIupHqVSwbMgtX4vMiYmbEwBfxv6GxXhgJNhNdRcc7upM/Y6kt1xnKYF3rAl+27fFX5KG3PK1HUNvu2sxtwV+zQ5r7KeG3nbX4igt/pKrAuDV2N+wGA+M5Fp++YzdVuY3Jb3tOksRvV0W6JpldbVJfo4D4rbAByJ13N+Xkh8vnhz7a3k3rL5dYSbMTdT9Um4B5CcJtwB6eqCpeXzKmp9Kush1loIyas4G2d/iFf8f5fFtgcgd9/fFxQkAu//T42uDRLuzbuberkywSEl6YaA1vyyvyFzJ4v/rPLwtENnj/r6UtAB4PPY3LMYDI/GWX1578ND7+66yMvcq3nMCrLWqPzSs69pbLrrokOswUebBbYHIH/f3paTHi3ZP46Oy9uZSXjN2jB41585NzHwEbgHkJ2m3AHpb3dj6acl+V9Jo11lydMQa81/vqKv+R9dB4iaBtwVicdzfl5L9cLF7N45VkH1Lfk/+C6Nd6WCyOWf+u66DFAIFID9JLwCS9NDG5vODLlNvpXicDho9mQ2yyzjyz8+xh+9ZbKxZJWmq6yyDtMMae0ecdvy9le4WAGN/w2I8MLxy26Uz31o6p+bTNtBiSW+6ztOPHcbY65bV1dzA4p+/GN8WiOVxf19Ksruwe5qGygY7xeS/sA6orPJ8M+7iY66D5IsTgPz4cALQ08r1u6rS5UdvssZ8SVYTXOc55R1Zc/+IY5WP85a+xRGj2wKxPe7vS2kKwO6GWyQ9XIprJYbVLea8uY+6jpEvCkB+fCsA3eq3batUW/ZGK/tlyVzgIoORtlvprw4NDZ5YUVvb6SKDbyJ8WyD2x/19KfoPF8b+DlJCxgNTAPLjawHoafXLLZfZLn3WGP1nSWcW+XKHJfOUUfC92+tqnjHG8P/fErMrV1YdL8/cZYzukjTEcZwT1uq+oWecuMd8bkXiTn+KXwD2NNwgqx8U+zqJZOwN5tx5sX43MQpAfigAH/ru2jeHHB1+4hprzTWSWSTZi5T/65gCSa9KWivZZ0a8X/Usx/zREIHbAok67u9L8QvA7ob1khYU+zqJZNRgzp07z3WMfFAA8kMBOL37m7aetfeHv9hfMWqEKkePVMWoESobWqmy8nKlKiuUSqclSUE2q6CjU12ZjLqOtavz8FF1HDqszkNHNGXxNWfdNq/mgOOngn44uC2QyOP+viT+h8vNN96d1wL02BPfTPzXKMn4/icb318/lOi2QKKP+/uSdh0AAID+mOXLT0ha0f7It75XpNsCiT/u7wsFAAAQC6cW6MUFvC3gzXF/X9y8HTAAAIPUPUToZ3s6lQly//xMYPWzPZ1KwjCffFAAAACxY5YvP/GzPR26b8v7aj6cDf15zYezum/LMf1sT4d8udd/OtwCAADE1oEOq7/ZdkK1o9K6fuIQnVnZ9+s6D3RY/fOudm1pC18Wko4CAACIvS1tWb1+5JiuHlehq8dVqPzU+XYmsHp2X0bP7usY1O2CJKMAAAAS4eS9/Q41HejU7046+duCT77drgMdjCPpCwUAAJAo3bcF0D9eBAgAgIcoAAAAeIgCAACAhygAAAB4iAIAAICHKAAAAHiIAgAAgIcoAAAAeIgCAACAhygAAAB4iAIAAICHKAAAAHiIAgAAgIcoAAAAeIgCAACAhygAAAB4iAIAAICHKAAAAHiIAgAAgIcoAAAAeIgCAACAhygAAAB4iAIAAICHjOsAxXbzjXdb1xkAANHz2BPfTPwa2B9OAAAA8BAFAAAAD1EAAADwEAUAAAAPUQAAAPAQBQAAAA9RAAAA8BAFAAAAD1EAAADwEAUAAAAPUQAAAPAQBQAAAA9RAAAA8BAFAAAAD1EAAADwkNfvhQwk3c033m3z+Xzf3y8dSDJOAAAA8BAFAAAAD1EAAADwEAUAAAAPUQAAAPAQBQAAAA9RAAAA8BAFAAAAD1EAAADwEAUAAAAPUQAAAPAQBQAAAA9RAAAA8BAFAAAAD1EAAADwEAUAAAAPUQAAAPAQBQAAAA9RAAAA8BAFAAAAD1EAAADwEAUAAAAPUQAAAPAQBQAAAA9RAAAA8BAFAAAAD1EAAADwEAUAAAAPUQAAAPAQBQAAAA9RAAAA8BAFAAAAD1EAAADwEAUAAAAPUQAAAPAQBQAAAA9RAAAA8BAFAAAAD1EAAADwkCn2BQ584U5b7GsAAJA0Z/71A0VdozkBAADAQxQAAAA8RAEAAMBDFAAAADxEAQAAwEMUAAAAPEQBAADAQxQAAAA8RAEAAMBDFAAAADxEAQAAwEMUAAAAPEQBAADAQxQAAAA8RAEAAMBDFAAAADxEAQAAwEMUAAAAPEQBAADAQxQAAAA8RAEAAMBDFAAAADxEAQAAwEMUAAAAPEQBAADAQxQAAAA8RAEAAMBDFAAAADxEAQAAwEMUAAAAPEQBAADAQ2nXAZKsfEKFJCmzu9Nxkvga/vnLXEdw6uh3XnYdIdI6qqr07vjxahs9WkdGjdKRkSPVWVmpzopKZctP/nhLZ7Kq6OxQRUeHRrS1aWRbm0YeOqRz9u1T5YkTjp8B+pKeNFZVC2fJpMt0Yt1mZXbscx0pkSgARTRkTpUkCgBQSAfGnq2d0y7Q3gkT1DZ6tGRMvx/fWVmhzsoKafhwHTzrrA//wlqNOnRI49/ZrSnbt2vMr/YXOTkG0r3wl08d98GfDf/sImXf3k8RKAIKQJGUT6j44ASgfEIFJQDIQ6a8QttqavTGjAt1ePTowjyoMWobM0ZtY8ao5aLZGtnWpgtat2p6S7PKM5nCXAOh9LXw9/57ikDhUQCKpHv33/3fKQBA7joqK9U6e7a21s46uYsvosOjRmnj/HnafMklqt68SdWbN6mig3+3xTTQwt/Xx1MECocCUAQ9d/89/zclAAjJGO2YPk0b581Xe1XVwB9fQJ2VFXrtssu0ddYszX55o2Zs2SxjbUkzJF2uC39fn08RyB8FoAh67v57/hkFABjY0ZEjtH7hIu0/5xynOToqK9V0+QK9NXWKLl+3TsOPHHGaJwnyXfj7ejyKwOBRAAqs9+6/959TAoDT2zV5sl68amHRj/tzsX/cOP3k935P855/XpPfeMN1nFgq9MLf1+NTBHJHASiwvnb/Pf+OAgD8OmuMXp6/QK2zZ7mO0qdMebleuOYaHRh7ti59aQO3BEIq9sLf1/UoAuFRAArodLv/3n9PCQA+1FWW0otXLdTOadNcRxlQy0Wz1T60SgvWrVMqCFzHiaxSL/x9XZ8iMDAKQAH1t/vv+TEUAOCkrrKUnv+N39TuSRNdRwntzWnT1FlRoat+/nNKQC+uF/7eKAL9owAUyEC7/94fRwmA94zRSx+/KlaLf7fdkyZp/cKFumLtWm4HKHoLf28Ugb5RAAokzO6/58dSAOC7pvkLtOPC6a5jDNrOadM09PgxXbrhJddRnIn6wt8bReCjKAAFEHb33/vjKQHw1VtTp0b2BX+5aL7oYo351QFN3r7ddZSSitvC3xtF4CQKQAHksvvv+TkUAPjo6IgR2vCJT7iOUTAvXXmlznzvPS/mBMR94e/N9yLA2wHnKdfdf76fB8SaMVq/aJEyFcn5/36mokIvXrVwwDclirPuhXLE569NzOLfU9Kf3+lwApCnwez+e34upwDwyfYZM5xP+CuG98aP047p0zX19dddRymopO34B+LbiQAnAHnIdxfPKQB80lFZqX+fO9d1jKJ5ed68SE0wLATfdsTduotA0lEA8pDP7r+QjwHEQevs2WofMsR1jKLpqKrS1tr4v7AR/qAADFKhdu+cAsAHmfIKLxbH1tmzlSkvdx0DCIUCMEiF3LlzCoCk21ZTk7jj8b50VFZqe0216xhAKBSAQSj0rp1TACRdnAf+5Gp7dY3rCEAoFIBBKMaOnVMAJNWBsWerbcwY1zFK5vCoUTp41pmuYwADogDkqFi7dU4BkFQ7p13gOkLJxeGdDQEKQI6KuVPnFABJtPe881xHKLl9E/x7zogfCkAOir1L5xQASdNRVaW2UaNcxyi5g2PGJPpXHpEMFIAclGKHzikAkuTd8eMTPSL3tIzR/vHjXacA+kUBCKlUu3NOAZAkbaNHu47gjM/PHfFAAQiplDtzTgGQFEc8PP7vdmTUSNcRgH5RAEIo9a6cUwAkxZER/i6CR0b6+9wRDxSAEFzsyDkFQBJ0ePxCuI4h/BtGtFEABuBqN84pAJIgW+HvXPws7wmAiKMADMDlTpxTAMRdNu3vIsibAiHqKAD9cL0Ld319AEByUQD6EYUdeBQyAIOVzmZcR3CmPOPvc0c8UABOIyq776jkAAYj3envIpimACDiKACnEaWdd5SyALmobG93HcGZyvYTriMA/aIA9CFqu+6o5QHCGnG4zXUEZ0a2HXYdAegXBaAPUdxxRzETMJARh/1dBH1+7ogHCkAvUd1tRzUX0J9RBw+6juDMSI+fO+KBAtBLlHfaUc4G9OWcffska13HKDljrcbu2+c6BtAvCkAPUd9lRz0f0FvliRMadeiQ6xglN/rAQQ3x+AWQiAcKQA9x2GHHISPQ0/jdu11HKLlxu99xHQEYEAXglLjsruOSE+g2Zdt21xFKbvJ2/54z4ocCcEqcdtZxygqM+dV+r14MOLKtTWMOHHAdAxgQBUDx21XHLS8w9fVtriOUzLTWFtcRgFAoAIrnjjqOmeGv6S3NqujodB2j6Co7OjStpdV1DCAU7wtAXHfTcc0NP5VnMpqxZbPrGEVXvWkTbwKE2PC+AMR5Jx3n7PBPzabXNOREcufjDzlxQtWbk19ykBxeF4C476Ljnh9+qejo1CUNja5jFM1lGzaovDNZtzmOfOdfldnh30Cj7Nv7dfR7a13HKLq06wAuJWEHPWROlTK7k/VDB8l1wetbtX3Ghdo/bpzrKAV1zr69mpLAX/3rXgjTk8aqauEslU9N1vett+zb+3Vi3WZvSo+3JwBJ2T0n5XnAE9bq8nXrErVTrujo1Px1zyV65HF3EUjqiUDSn9/peHsCkITdfzdOARAnw48c0YLnn9fz117rOkpBLHj+OQ0/csR1jJJI2omAbzv+3rwsAEnbNXc/H0oA4mLSjh2qeW2TWi6a7TpKXmpffVUT33zTdYySi3sR8H3h7+ZlAUjS7r8bpwCIm8te2qCOIZXaceGFrqMMypTt2/WxhgbXMZyKWxFg4f8o7wpA0nb/3TgFQOxYq/nPP6+OIVXaPWmi6zQ5Oe+tt7Vg3TqZBN/3z0XUiwALf9+8KwBJ3P134xQAcZMKAl31s5/qpU98XG/MqHYdJ5Sp27Zp/nPPKRUErqNETtSKAAt//7wqAEnd/XfjFABxlLJWC57/pSo7OtR80cWu45yetap97TVd0tCQ6Ff8F4LrIsDCH45XBSDJu/9unAIglqzVpRte0th97+rFqxaqszJaRb0806n5z/1S5+94w3WUWCl1EWDhz403BSDpu/9unAIgzibu3KlRB/+fXrxqod4bH437yOfs26sFa9fpjKNHXUeJrWIXARb+wfGmAPiw++/GKQDibPiRI/rkj57WjunT9PK8+eqocvNvt7KjQx9raND01laO/Auk0EWAhT8/XhQAX3b/3TgFQOxZq6mvb9N5b72lrbWz1Dp7tjoqK0ty6cqOdlVv2qzqzZsTNbEwSvItAiz8heFFAfBp99+NUwAkQUVHp2Zv3KiaTZu0raZab8yoVtvo0UW51qiDB3XB1q2a3tqqNG/pWxK5FgEW/sJKfAHwbfffjVMAJEk6k1HNa5tU89omHTzrTO2cNk17zztPbaPHyBozqMc01mr0wYMa9847mrx9u8YcOFDg1AhroCLAwl8ciS8APu7+u3EKgCQa86sDGvOrA5JeUvuQIdo/frwOjx6tw6NG6fCokcpUVKqzslLZdLkkKZ3NqKKjQ+WdHRrZ1qaRbYc18uBBjd23T0Pa290+GXzEB0Vg8tkauvDkmOjj6zYpu/M9x8mSaXDVOQcHvnAnr54BACBHZ/71A0Vdo719O2AAAHxGAQAAwEMUAAAAPEQBAADAQxQAAAA8RAEAAMBDFAAAADxEAQAAwEMUAAAAPEQBAADAQxQAAAA8RAEAAMBDFAAAADxEAQAAwEMUAAAAPEQBAADAQxQAAAA8RAEAAMBDFAAAADxEAQAAwEMUAAAAPEQBAADAQxQAAAA8RAEAAMBDFAAAADxEAQAAwEMUAAAAPEQBAADAQxQAAAA8RAEAAMBDFAAAADxkXAcAUDw333i3zefzH3vim/yMABKKEwAAADxEAQAAwEMUAAAAPEQBAADAQxQAAAA8RAEAAMBDFAAAADxEAQAAwEMUAAAAPEQBAADAQxQAAAA8RAEAAMBDFAAAADxEAQAAwEMUAAAAPEQBAADAQxQAAAA8RAEAAMBDFAAAADxEAQAAwEMUAAAAPEQBAADAQxQAAAA8RAEAAMBDFAAAADxEAQAAwEMUAAAAPEQBAADAQxQAAAA8RAEAAMBDFAAAADxEAQAAwEMUAAAAPEQBAADAQxQAAAA8RAEAAMBDFAAAADxEAQAAwEMUAAAAPEQBAADAQxQAAAA8RAEAAMBDFAAAADxEAQAAwEMUAAAAPEQBAADAQxQAAAA8RAEAAMBDFAAAADxEAQAAwEMUAAAAPEQBAADAQxQAAAA8RAEAAMBDFAAAADxkXAcAUFhr1tiydy5onlIWmAvf+7dXflw+argqhp+hVEW5THlaZeVppSoqlCpPS5KCTFZBZ6e6MlnZTFZBZ0adR99Xpu2ozr7ikt8xpnzruB3Tdi5ZYroczEUd4gAADX1JREFUPzUABUQBAGKufsO2EUplr7JGiyQtlFQrqaLAl+k00mYrrbOB1qZs+vml86cfKfA1AJQQBQCIoVUvt15krP0jWV0tqU5SWYkjZCW9bKRnjNE/3F5Xs6nE1weQJwoAEBMr128ZU1ae+n0rfdZIV7jO8xFGzUb2e2WB/dtb59bucx0HwMAoAEDE1Tc2X2uVulOyn5SUdp1nAFnJ/Fy2a+WyubXPuA4D4PQoAEAEWWvNg42t11npv8lovus8g/SKNeZbyy6b8U/GGOs6DICPogAAEWKtNasbW5YYY/5c0mzXeQrC6FUr8z8oAkC0UACAiFjV2DrDyD4k6VrXWYrCml/KBLcsmzNzs+soACgAgHOPNzUNbbfDviLpayr8r+9FTdZaPdLRae6+68rqo67DAD6jAAAOrXqp5TqT0qOSznOdpZSMzC6Z4ItL62b+2HUWwFcUAMCBFWvXpkefMe5uSV+XvyO5rbV6sG1Y8OUVtbWdrsMAvqEAACW2umnLJGNT/2ClBa6zRIGVmqzK/vDOORfucJ0F8ImvOw/AiQeamq+XLXuVxf9DRqpLqatpVWPrp1xnAXxCAQBKZHVj860pa34g2VGus0TQaCP7z6ubWpa7DgL4ggIAlEB9U/NdknlI/Jvrj5HVt1c1tt7jOgjgA14DABTRmjW2bM+U1oeNdJPrLHFijZ5oO7rvCysWLcq6zgIkFbsRoEjWrLFl+6a0/j2Lf+6M1Y2jh5/zf9essaV+l0PAGxQAoAistWbf1NZHrfQHrrPEljVL9k5pfcR1DCCpKABAETzY1PpNa/UF1zkS4E9XNbV8w3UIIIl4DQBQYKsamm8xxjzsOkeiWHPHsrnVq13HAJKEAgAU0ANNzdef/FU/TtcKLDBW1y+dW/O06yBAUlAAgAJZ3bRlkmzqFUljXGdJqENBVpfeuaBmp+sgQBKwSwEK4PGmpnJjU/8gFv9iGp1K2++v2LIl6e+YCJQEBQAogBP2jPsY71sKZu6o4+abrlMAScAtACBP9Q0ti63RD8W/p1Kxkr1u2ZyZP3EdBIgzfmABeXi8qWloux3WLOl811l8YmR2lQ3tmnlrbe37rrMAccUtACAPHcGwvxSLf8lZ2YnZY6k/d50DiDNOAIBBWtmwpbbMpF6RVO46i6c6g1TZx+687MIW10GAOOIEABgEa61Jm9RDYvF3qSIVdD1mrWUjAwwCBQAYhNWNLUustNB1DugTDza2/q7rEEAcUQCAHFlrjTGG+88RYY35OqcAQO4oAECO6pu2fkrSbNc50M1+rL6p5T+4TgHEDQUAyJn9iusE6MWar7uOAMQNBQDIQX1j87WSLnedA70YzV/d1LrIdQwgTigAQA6sUne6zhA1QSarw61vuI4hBXa56whAnPDCGSCkVRs2nWPK0u9ISrvOEhVBJqtdP16n47vf1ZmXztTZCy5xGSdru7Ln3TF/9rsuQwBxwQkAEFY6/cdi8f9Az8Vfkg5sbNZ7L77iMlLapMr/yGUAIE4oAEBIRvqM6wxR0Xvx7+a8BBjL9wgIiVsAQAirG5tnSWaT6xxRcLrFvyeXtwNSRhfdXlfD9woYACcAQAhG5j+6zhAFYRZ/ye1JQBCYP3ByYSBmKABACFb2WtcZXAu7+HdzVgKMvab0FwXih1sAwAAeb3pjZLvtPCCpzHUWV3Jd/HtycDsga7rSZy6dP/1IKS8KxA0nAMAAOoLOT4jFf1CLv+TkJCBtyzJXlvKCQBxRAIABWCNvJ8zlu/h3K3kJMMbb7xkQFgUAGNhC1wFcKNTi362kJcD6W9qAsCgAQD/WrLFlkma6zlFqQSarXU+vLdji3+3Axma1tZRkbPCsU987AKdBAQD68c4FzVMkVbrOUUof7Pz3vlfwxx46fqxGTJtU8MftQ+W7528tyYWAuKIAAP1IWzPDdYZSKvSxf09Dx4/VxMWLlCovL/hj9yUw8up7B+SKAgD0w8qfApCkxf8Ub753wGBQAID+WD8WkQQu/pICL753wGBRAIB+GKvzXWfo7XDrGwoy2YI9XrFe8CdJQ8efrYmLr3aw+EvWaHLJLwrECAUA6IeVRrrO0NP+hte055kNevupZxVkMnk/XrFf8Ddx8UKlyl29g7IZ4ejCQCxQAID+GJ3hOkK3/Q2v6VeNJ9/k7sS+/Xr7qbV5lYBkHvt/yEjDnV0ciAEKANC/SCwiPRf/bvmUgKQv/qdE4nsHRBUFAOif80Wkr8W/22BKgCeLvxSB7x0QZRQAoH9ObwH0t/h3y6UEeLT4SxQAoF8UACCiwiz+3cKUAM8WfwADoAAA/XvfxUVzWfy79VcCPF38j7oOAEQZBQDoX8kXkcEs/t36KgGeLv4SBQDoFwUA6F9JF5F8Fv9uPUuAx4u/RAEA+uVqQgcQC0Y6akt0rUIs/t1O7NuvXU+vk6QiDfk5+9TiH90fIZYCAPQruv96gSiwOiJT/Mu0tbxRsMW/WzEWfikei/9J9ojrBECUcQsA6Ic1eqsU1xkx7XwNnXBOKS6VF/fjfcMzVjtdZwCijAIA9MdoaykukypPa+LvLIx0CYjBPf9eUiX53gFxRQEA+mFkS7aIRLkExG/xl6TSlDcgrigAQL/KW0t5tSiWgJgu/gq6bEm/d0DcUACAfozbMW2npI5SXjNKJSCui7+k9gm7qne5DgFEGQUA6MeSJaZLUnOprxuFEhDjxV+Stpz63gE4DQoAMLC1Li7qsgTEfPGXlX3WdQYg6igAwABs4KYASG5KQNwXf0kqU5mz7xkQFxQAYAAdGfOcpKyr65eyBCRh8ZeUPd5hX3AdAog6CgAwgLuurD4q6WWXGUpRAhKy+MtKL536ngHoBwUACMX+q+sExSwBSVn8JclYw/1/IAQKABBCl7V/7zqDVJwSkKTFX5JkgjWuIwBxQAEAQlg+t3aLZP7ddQ6psCUgaYu/lZqWzZm52XUOIA4oAEBYxv6d6wjdClECkrb4S1LKmMh8j4CoowAAIVWUl/8fOfxtgN7yKQFJXPwlZYNs5vuuQwBxQQEAQvrixdPek8zPXefoaTAlIKGLvyT9yx3zZ7/rOgQQFxQAIBe2a6XrCL3lUgISvPgrkCL3vQGizLgOAMTN6saWf5N0uescvQWZrHb9eJ2O7+57E5zkxV9WG5bNrVngOgYQJ5wAADkyVve4ztCX/k4CEr34S0qZ1F+6zgDEDScAQI6stebBptYmK13qOktfep8EJH3xl8y/L62bcakxxrpOAsQJJwBAjowxNjAmkqcA0kdPApK/+EuBCb7B4g/kjhMAYBCstaa+qfUZSYtcZzmdIHPyNxZT5WnHSYrquaV11YsoAEDuOAEABsEYY01XcJukjOssp5MqTyd98e8MUmVfZPEHBocCAAzS0vm1zVZ2lescvjLS/XdedmGL6xxAXFEAgDxUmeMrZLTTdQ4Pvd1R0fk/XYcA4owCAOThprq640b2NkkcQ5eOlTU3ffnii4+5DgLEGQUAyNPSupk/NpYpdKViZe5bNrf6p65zAHFHAQAK4OCxfV+VtN51Dg+8VGXe/7rrEEAS8GuAQIF8u2HTxLRJvyLpTNdZEupQWZm95LZLZ77lOgiQBJwAAAXyZ3Nn77Iyn5cUuM6SQF2S/WMWf6BwKABAAd0xp/opGXOr6xyJY3Tnsjkzf+I6BpAkFACgwJbVVT9mjXhzmgIxVn+xrK7mQdc5gKThNQBAkaxubKmXdLvrHHFmpcfvmFNzs+scQBJxAgAUyfg3q++UsWtc54grI/P9c9+s5nYKUCQUAKBIliwxXeN31PwnyT7mOksMfffg+3v/eMkS0+U6CJBU3AIASqC+qfkua6P7FsJRYmXuvWNO9Vdd5wCSjgIAlMiqhuZbjDEPipO30+mSMbctq6vmxAQoAQoAUEL1DS2LrdETksa4zhIxByT7WX7VDygdCgBQYt9u2DSxzKT/3khXuM4SEY2pwPzh7fOq33QdBPAJR5FAif3Z3Nm72t7ft1DSN+T31EBrreqHmGNXsPgDpccJAODQ6sbm35bMo5Imuc5SYm/Jmpt5Vz/AHU4AAIeWzZn5kyHmWI1OngZ0uM5TAhlrVZ8eGsxi8Qfc4gQAiIjVG5qnq8w8JOmTrrMUyXNdNrh1+dzaLa6DAKAAAJFT39BygzW6W9IlrrMUgpE2dhn73++sm/nPrrMA+BAFAIio1U1br7RB8A1jdLXrLIO03ljdc/uc6h8ZY6zrMAA+igIARNzqptZFCuxyGf2WpLTrPAPIyuqnSpmVy+qq17oOA+D0KABATKxcv2VMWXnq96302cjNEDBqNrLfC7JdT9wxf/a7ruMAGBgFAIihlQ1bastU9ofG2GutNEelPxnISmqwRv+aygbfXzq/trnE1weQJwoAEHP3vtA6fEhl8HFjzdXWaKGkWZIqC3yZDittMkbrZO3a9FD7/K21te8X+BoASogCACTMmjW2bPeUbeenbHChMUG1lWZIZrKkETIaJqvhkkZJOuPUp7wvqU1GR63V+0Y6KmvflFJbJW1NWW09MHfGWyuM8XlqIQAAAAAAAAAAAAAAAAAAAAAAAAAAAAAAAAAAAAAAAAAAAAAAAAAAAAAAAAAAAAAAADzw/wGQL3IJkgPy/QAAAABJRU5ErkJggg==;" parent="1" vertex="1">
                    <mxGeometry x="130" y="430" width="100" height="100" as="geometry"/>
                </mxCell>
                <mxCell id="31" style="edgeStyle=none;html=1;fontColor=#FFFFFF;" parent="1" source="7" target="30" edge="1">
                    <mxGeometry relative="1" as="geometry"/>
                </mxCell>
                <mxCell id="7" value="Pipeline stdout.conf" style="shape=image;verticalLabelPosition=bottom;labelBackgroundColor=default;verticalAlign=top;aspect=fixed;imageAspect=0;image=data:image/png,iVBORw0KGgoAAAANSUhEUgAAAgAAAAIACAYAAAD0eNT6AAAABHNCSVQICAgIfAhkiAAAAAlwSFlzAAAOxAAADsQBlSsOGwAAABl0RVh0U29mdHdhcmUAd3d3Lmlua3NjYXBlLm9yZ5vuPBoAACAASURBVHic7d1/fNXVnefx97m5SQjIT0VBBAFBEgJaNfxSW0GdzuyMtI4zw8zuTru2sx2tP0CZtrY79jF0trtVxyLE3zuzrdPZfcyUma5TbTv9MQpaBzGJOAokQRBR5IdSIIBAknvzPfsHRGMaku/N/XG+3+95Pf9pC8n9vm9Sct7nfG8+VwIAAAAAAAAAAAAAAAAAAAAAAAAAAAAAAAAAAAAAAAAAAAAAAAAAAAAAAAAAAAAAAAAAAAAAAAAAAAAAAAAAAAAAAAAAAAAAILqM6wAu2d2NV0jWmglz17vOAgAojPZHvjU1CFKrJSmVCpYNueVrO1xniiLfC8CTpwrADa6zAADyY1eurDpenrnLGN0lacipPz5hre4besaJe8znVrS7zBc13hYAu2vDdKVSrZIkk6o159a1Oo4EABikYw/fs9hYs0rS1NN8yA5r7B3Dbv3q06XMFWX+FoA9jY/K2pslSUaPmnPn3uI4EgAgRz2O+68L+Sk/4rbASV4WALt341gF2bckVZ36o3alg8nmnPnvuswFAAjnNMf9YXFbQFLKdQAngsyt+nDxl6QhypovuooDAAjv2MP3LD5RkdlsjP5CuS/+klRljP7ixLGqLccevmdxofPFhXcnAHZP01DZYKeksb3+6oDKKs834y4+5iAWAGAAgzjuD8vL2wL+FYDdDbdIerjvv9Qt5ry5j5Y2EQCgP3ke94fl3W0BrwqAtTalPY2tkqb3/QHaoQk7LzRmSVdpkyXX6sYW6zpDnC2bU+PVv9FcPPrq9rM7splLUtbMsNIMWc2Q7NmShkkafeo/JemYpEOn/vNdGfO6ZFuNtFWp9CtLL52+39FTQAghXt1faN78toBXP1zsnoYbZPWDfj/I2BvMufOeLFGkxKMA5IcC8KHHm5qGttszfsNae7UxWiRplvL/GWYlbZKxa61NPRtkhv1i+eUTT+SfFvkq4nF/WIm/LeDVDxe7u2G9pAX9fpBRgzl37rzSJEo+CkB+fC8AK6xNjX759ctlg89I+iNJI4p8ySOS+aGx9h/H7az+yZIlhtPAEivRcX9Yib4t4M0Pl1Njf18I+eFXMB64MCgA+fG1AHx37ZtDDg878XljzJckTXEUY4cx5n6NLPvO0unTOxxl8IqD4/6wEnlbwJsfLqfG/l4f8sOfZDxwYVAA8uNbAXi8qWloezDsFhktlzTedZ5T9sro/iE69thNdXXHXYdJoggc94eVqNsCXvxw6TH2N+zcg4DxwIVBAciPTwWgvqFlsU2pXlaTXWc5jXeMzJ1L51T/k+sgSRGx4/6wEnNbwI9BQGVly5Xbc01JwdJixQHwoQdebJm8uqHlaWv0VIQXf0k6z8r+Y31jyw9XN22Z5DpM3BVgmI8riRkilPjdRR9jf8NiPHABcAKQn6SfADzQ1Hx9yprv6OSv7cXJEVnzhWVzq9e4DhI3MTruDyu2twXSrgMUXZC5VTK5Lv7Sh+OBVxQ4EeC9+m3bKoND2fuMVVxP2kbI2O+vbmy5xoxKL+VFggPrPu4Pglgd94dxXRCkrjn24L2xuy2Q6FsAdk/TUMnk8S5/5ja779VhA38cgLAeeqnlTHsou86Y2C7+Pf1p0JZ9ZuX6LWNcB4myGB/3hxXL2wKJLgCywY369Zn/uThT2Y7PFigN4L0HN7ae25XSWhnNd52lUIx0RVm5eeHbDZsmus4SNe2PfGvq8YfufdpY85Si96t9xTDVWPPU8Yfufbr9kW9F/vkmtgBYa1OS7ijAQ33J2jVlBXgcwGsPNm2ttl3aIGm26yyFZ2rSJv3CqsbWGa6TRIFdubLq2IP3rgiC1BYl515/Lq4LgtTmYw/eu8J+d0VkTzwSWwC0t/F6nW7mfy6Mpmrv+Z/KPxDgr5Xrt04IbPBTK5vkXfIkY+wzD21sPt91EJc8OO4PK/K3BZJbAKy+VLgHM18t3GMBfnnopZYzy8q7fiEp+Quj1YSuwPzEx9cEeHjcH1ZkbwsksgCcHPs7wMz/nB5Qc+3uhssL9niAJ+q3bavsMvqRZGpcZykZq5ll5amn67dtq3QdpRQ47g8tcrcFElkApELu/ov6mECi2bbst5P0gr8cXB4cyt7nOkSxcdyfs0jdFkhcAbC7NkyXbDHu2X/a7mmqLsLjAolU39j6+5JudZ3DFWO0tL6hJdHvKcJx/6BNPfW1cypxBWAQY3/DYjwwENIDL7ZMtrJ/4zqHa9aY/+37iwIRXYkqAHbvxrGy9r8U7wL6nH13wzlFe3wgIVJp1Usa6TqHe3ZUV5dWu04B9CVRBeDk2N+cZ/7nons8MIDTeKCp+XpJzu9vRof5dH1DC18PRE5iCkD+Y3/DYjwwcDqPNzUNTVmzynWOqLFGq1eu31XMzQmQs8QUgAKM/Q2L8cDAaXTYM26VD7/vn7sp6fKjN7kOAfSUiAJQwLG/YTEeGOilftu2Sitbyn+HsWJlvvLdtW/yq3KIjEQUgIKN/Q2L8cDArwkOZf5E0rmuc0TY+KNntBfvRcpAjpJRAAo69jcsxgMD3VZYmzLGMCxrAFb2y9Za4zoHICWgABR87G/oCzMeGOg2+uWtV0ma4jpH9JkLVje2fNx1CkBKQAGQ2xG97HgASbL2M64jxIVRiq8VIiHWBaCIY3/DYjwwvHfq19sSPfK2oIxdwq8EIgpiXQCKOPY3LMYDw3tl5cc+Kab+5WJEuuLo1a5DALEtAEUf+xs6COOB4TdrLYtZrgKzyHUEILYFoARjf8NiPDC8ZoxYzHJkjbnGdQYglgWgdGN/w2I8MPz06Kvbz5Y0y3WO+LEX3d+09SzXKeC3WBaAEo79DYvxwPBSRzZziSR+rz13qQrb9THXIeC32BUAB2N/w2I8MLyTsmaG6wxxZSW+dnAqdgWg5GN/w2I8MDzEIpYPyhPcil8BcDL2NyzGA8Mz1l7oOkKMUQDgVKwKgLOxv2ExHhj+Gec6QIzxtYNTsSoAisfo3ThkBApluOsAMcbXDk7FpgBEYOxvWIwHhk9YxAaPrx2cik0BiMDY37AYDwyfnOE6QIxRAOBUHBbU6Iz9DYvxwACAiItFAYjQ2N+wGA8MX7zvOkCMHXUdAH6LfAGI3tjfsBgPDC+wiA0eXzs4FfkCEMGxv2ExHhg+YBEbPL52cCrSBSDCY3/DYjwwkm6f6wAxxtcOTkW6AER27G9YjAdG0hnzuusIMbbVdQD4LdoFINJjf8NiPDCSy7CI5cHytYNTkS0AkR/7GxbjgZFggWERGyzKE1yLbAFQskbqJum5AB9ImfRGSdZ1jhgKUoF5xXUI+C2SBSBGY3/DYjwwEmnppdP3S9rsOkcMvXrbvJoDrkPAb5EsADEa+xsW44GRXMY+6zpC3BgrvmZwLnKLbOzG/obFeGAklLUpFrMcWUoTIiByBSCGY3/DYjwwEinIDPuFpMOuc8TI4a7M8LWuQwCRKgDxHfsbFuOBkTzLL594QrI/cJ0jLozRmpNfM8CtSBWAGI/9DYvxwEikQObvXGeIDRPwtUIkRKYAJGDsb1iMB0biHK6rfl7SDtc5os5I22+/dOYLrnMAUoQKQOzH/obFeGAk0ApjAmPM/a5zRJ2V/soYw9wEREJ0CkAixv6GxXhgJNDIsu9I2uM6RoS9Y0al/9Z1CKBbJApAYsb+hsV4YCTQ0unTO6zRStc5osoY81dLp0/vcJ0D6BaJAiA/R+X6+JyRcFU69qiMdrrOET32jeFHK/+X6xRAT84LQALH/obFeGAkzk11dcdTNpXgX+UdHGO07HOLprS7zgH05LwAJHDsb1iMB0Yi3T5nxr8Y6SnXOSLD6MmldTN/7DoG0JvThTexY3/DYjwwEsqa4HbJtLnOEQGHskF2mesQQF/c7ryTO/Y3LMYDI5GW1dW+bQP7Gfn9VsFWgf2TP5s7e5frIEBfnBWA5I/9DYvxwEimO+bV/MhaPeg6h0Orls2b+aTrEMVkjf2UGAA1GDtOfe2ccncCkPyxv2ExHhiJlRqd/oqk9a5zlJw1vzw0NEj8vI9ht3716arO8lnW6huSeJHjwE5Yq29UDTtRO+zWrz7tOoxxcVFrbUp7Glvlw+S/MKx2aMLOC41Z0uU6SqGtbmzx+Qg4b8vm1Dj5N1pIjze9MbJdnc/J6mLXWUrBSFuymeATyy+vPeg6Sym1P/KtqUGQWi3pOtdZIupHqVSwbMgtX4vMiYmbEwBfxv6GxXhgJNhNdRcc7upM/Y6kt1xnKYF3rAl+27fFX5KG3PK1HUNvu2sxtwV+zQ5r7KeG3nbX4igt/pKrAuDV2N+wGA+M5Fp++YzdVuY3Jb3tOksRvV0W6JpldbVJfo4D4rbAByJ13N+Xkh8vnhz7a3k3rL5dYSbMTdT9Um4B5CcJtwB6eqCpeXzKmp9Kush1loIyas4G2d/iFf8f5fFtgcgd9/fFxQkAu//T42uDRLuzbuberkywSEl6YaA1vyyvyFzJ4v/rPLwtENnj/r6UtAB4PPY3LMYDI/GWX1578ND7+66yMvcq3nMCrLWqPzSs69pbLrrokOswUebBbYHIH/f3paTHi3ZP46Oy9uZSXjN2jB41585NzHwEbgHkJ2m3AHpb3dj6acl+V9Jo11lydMQa81/vqKv+R9dB4iaBtwVicdzfl5L9cLF7N45VkH1Lfk/+C6Nd6WCyOWf+u66DFAIFID9JLwCS9NDG5vODLlNvpXicDho9mQ2yyzjyz8+xh+9ZbKxZJWmq6yyDtMMae0ecdvy9le4WAGN/w2I8MLxy26Uz31o6p+bTNtBiSW+6ztOPHcbY65bV1dzA4p+/GN8WiOVxf19Ksruwe5qGygY7xeS/sA6orPJ8M+7iY66D5IsTgPz4cALQ08r1u6rS5UdvssZ8SVYTXOc55R1Zc/+IY5WP85a+xRGj2wKxPe7vS2kKwO6GWyQ9XIprJYbVLea8uY+6jpEvCkB+fCsA3eq3batUW/ZGK/tlyVzgIoORtlvprw4NDZ5YUVvb6SKDbyJ8WyD2x/19KfoPF8b+DlJCxgNTAPLjawHoafXLLZfZLn3WGP1nSWcW+XKHJfOUUfC92+tqnjHG8P/fErMrV1YdL8/cZYzukjTEcZwT1uq+oWecuMd8bkXiTn+KXwD2NNwgqx8U+zqJZOwN5tx5sX43MQpAfigAH/ru2jeHHB1+4hprzTWSWSTZi5T/65gCSa9KWivZZ0a8X/Usx/zREIHbAok67u9L8QvA7ob1khYU+zqJZNRgzp07z3WMfFAA8kMBOL37m7aetfeHv9hfMWqEKkePVMWoESobWqmy8nKlKiuUSqclSUE2q6CjU12ZjLqOtavz8FF1HDqszkNHNGXxNWfdNq/mgOOngn44uC2QyOP+viT+h8vNN96d1wL02BPfTPzXKMn4/icb318/lOi2QKKP+/uSdh0AAID+mOXLT0ha0f7It75XpNsCiT/u7wsFAAAQC6cW6MUFvC3gzXF/X9y8HTAAAIPUPUToZ3s6lQly//xMYPWzPZ1KwjCffFAAAACxY5YvP/GzPR26b8v7aj6cDf15zYezum/LMf1sT4d8udd/OtwCAADE1oEOq7/ZdkK1o9K6fuIQnVnZ9+s6D3RY/fOudm1pC18Wko4CAACIvS1tWb1+5JiuHlehq8dVqPzU+XYmsHp2X0bP7usY1O2CJKMAAAAS4eS9/Q41HejU7046+duCT77drgMdjCPpCwUAAJAo3bcF0D9eBAgAgIcoAAAAeIgCAACAhygAAAB4iAIAAICHKAAAAHiIAgAAgIcoAAAAeIgCAACAhygAAAB4iAIAAICHKAAAAHiIAgAAgIcoAAAAeIgCAACAhygAAAB4iAIAAICHKAAAAHiIAgAAgIcoAAAAeIgCAACAhygAAAB4iAIAAICHjOsAxXbzjXdb1xkAANHz2BPfTPwa2B9OAAAA8BAFAAAAD1EAAADwEAUAAAAPUQAAAPAQBQAAAA9RAAAA8BAFAAAAD1EAAADwEAUAAAAPUQAAAPAQBQAAAA9RAAAA8BAFAAAAD1EAAADwkNfvhQwk3c033m3z+Xzf3y8dSDJOAAAA8BAFAAAAD1EAAADwEAUAAAAPUQAAAPAQBQAAAA9RAAAA8BAFAAAAD1EAAADwEAUAAAAPUQAAAPAQBQAAAA9RAAAA8BAFAAAAD1EAAADwEAUAAAAPUQAAAPAQBQAAAA9RAAAA8BAFAAAAD1EAAADwEAUAAAAPUQAAAPAQBQAAAA9RAAAA8BAFAAAAD1EAAADwEAUAAAAPUQAAAPAQBQAAAA9RAAAA8BAFAAAAD1EAAADwEAUAAAAPUQAAAPAQBQAAAA9RAAAA8BAFAAAAD1EAAADwkCn2BQ584U5b7GsAAJA0Z/71A0VdozkBAADAQxQAAAA8RAEAAMBDFAAAADxEAQAAwEMUAAAAPEQBAADAQxQAAAA8RAEAAMBDFAAAADxEAQAAwEMUAAAAPEQBAADAQxQAAAA8RAEAAMBDFAAAADxEAQAAwEMUAAAAPEQBAADAQxQAAAA8RAEAAMBDFAAAADxEAQAAwEMUAAAAPEQBAADAQxQAAAA8RAEAAMBDFAAAADxEAQAAwEMUAAAAPEQBAADAQ2nXAZKsfEKFJCmzu9Nxkvga/vnLXEdw6uh3XnYdIdI6qqr07vjxahs9WkdGjdKRkSPVWVmpzopKZctP/nhLZ7Kq6OxQRUeHRrS1aWRbm0YeOqRz9u1T5YkTjp8B+pKeNFZVC2fJpMt0Yt1mZXbscx0pkSgARTRkTpUkCgBQSAfGnq2d0y7Q3gkT1DZ6tGRMvx/fWVmhzsoKafhwHTzrrA//wlqNOnRI49/ZrSnbt2vMr/YXOTkG0r3wl08d98GfDf/sImXf3k8RKAIKQJGUT6j44ASgfEIFJQDIQ6a8QttqavTGjAt1ePTowjyoMWobM0ZtY8ao5aLZGtnWpgtat2p6S7PKM5nCXAOh9LXw9/57ikDhUQCKpHv33/3fKQBA7joqK9U6e7a21s46uYsvosOjRmnj/HnafMklqt68SdWbN6mig3+3xTTQwt/Xx1MECocCUAQ9d/89/zclAAjJGO2YPk0b581Xe1XVwB9fQJ2VFXrtssu0ddYszX55o2Zs2SxjbUkzJF2uC39fn08RyB8FoAh67v57/hkFABjY0ZEjtH7hIu0/5xynOToqK9V0+QK9NXWKLl+3TsOPHHGaJwnyXfj7ejyKwOBRAAqs9+6/959TAoDT2zV5sl68amHRj/tzsX/cOP3k935P855/XpPfeMN1nFgq9MLf1+NTBHJHASiwvnb/Pf+OAgD8OmuMXp6/QK2zZ7mO0qdMebleuOYaHRh7ti59aQO3BEIq9sLf1/UoAuFRAArodLv/3n9PCQA+1FWW0otXLdTOadNcRxlQy0Wz1T60SgvWrVMqCFzHiaxSL/x9XZ8iMDAKQAH1t/vv+TEUAOCkrrKUnv+N39TuSRNdRwntzWnT1FlRoat+/nNKQC+uF/7eKAL9owAUyEC7/94fRwmA94zRSx+/KlaLf7fdkyZp/cKFumLtWm4HKHoLf28Ugb5RAAokzO6/58dSAOC7pvkLtOPC6a5jDNrOadM09PgxXbrhJddRnIn6wt8bReCjKAAFEHb33/vjKQHw1VtTp0b2BX+5aL7oYo351QFN3r7ddZSSitvC3xtF4CQKQAHksvvv+TkUAPjo6IgR2vCJT7iOUTAvXXmlznzvPS/mBMR94e/N9yLA2wHnKdfdf76fB8SaMVq/aJEyFcn5/36mokIvXrVwwDclirPuhXLE569NzOLfU9Kf3+lwApCnwez+e34upwDwyfYZM5xP+CuG98aP047p0zX19dddRymopO34B+LbiQAnAHnIdxfPKQB80lFZqX+fO9d1jKJ5ed68SE0wLATfdsTduotA0lEA8pDP7r+QjwHEQevs2WofMsR1jKLpqKrS1tr4v7AR/qAADFKhdu+cAsAHmfIKLxbH1tmzlSkvdx0DCIUCMEiF3LlzCoCk21ZTk7jj8b50VFZqe0216xhAKBSAQSj0rp1TACRdnAf+5Gp7dY3rCEAoFIBBKMaOnVMAJNWBsWerbcwY1zFK5vCoUTp41pmuYwADogDkqFi7dU4BkFQ7p13gOkLJxeGdDQEKQI6KuVPnFABJtPe881xHKLl9E/x7zogfCkAOir1L5xQASdNRVaW2UaNcxyi5g2PGJPpXHpEMFIAclGKHzikAkuTd8eMTPSL3tIzR/vHjXacA+kUBCKlUu3NOAZAkbaNHu47gjM/PHfFAAQiplDtzTgGQFEc8PP7vdmTUSNcRgH5RAEIo9a6cUwAkxZER/i6CR0b6+9wRDxSAEFzsyDkFQBJ0ePxCuI4h/BtGtFEABuBqN84pAJIgW+HvXPws7wmAiKMADMDlTpxTAMRdNu3vIsibAiHqKAD9cL0Ld319AEByUQD6EYUdeBQyAIOVzmZcR3CmPOPvc0c8UABOIyq776jkAAYj3envIpimACDiKACnEaWdd5SyALmobG93HcGZyvYTriMA/aIA9CFqu+6o5QHCGnG4zXUEZ0a2HXYdAegXBaAPUdxxRzETMJARh/1dBH1+7ogHCkAvUd1tRzUX0J9RBw+6juDMSI+fO+KBAtBLlHfaUc4G9OWcffska13HKDljrcbu2+c6BtAvCkAPUd9lRz0f0FvliRMadeiQ6xglN/rAQQ3x+AWQiAcKQA9x2GHHISPQ0/jdu11HKLlxu99xHQEYEAXglLjsruOSE+g2Zdt21xFKbvJ2/54z4ocCcEqcdtZxygqM+dV+r14MOLKtTWMOHHAdAxgQBUDx21XHLS8w9fVtriOUzLTWFtcRgFAoAIrnjjqOmeGv6S3NqujodB2j6Co7OjStpdV1DCAU7wtAXHfTcc0NP5VnMpqxZbPrGEVXvWkTbwKE2PC+AMR5Jx3n7PBPzabXNOREcufjDzlxQtWbk19ykBxeF4C476Ljnh9+qejo1CUNja5jFM1lGzaovDNZtzmOfOdfldnh30Cj7Nv7dfR7a13HKLq06wAuJWEHPWROlTK7k/VDB8l1wetbtX3Ghdo/bpzrKAV1zr69mpLAX/3rXgjTk8aqauEslU9N1vett+zb+3Vi3WZvSo+3JwBJ2T0n5XnAE9bq8nXrErVTrujo1Px1zyV65HF3EUjqiUDSn9/peHsCkITdfzdOARAnw48c0YLnn9fz117rOkpBLHj+OQ0/csR1jJJI2omAbzv+3rwsAEnbNXc/H0oA4mLSjh2qeW2TWi6a7TpKXmpffVUT33zTdYySi3sR8H3h7+ZlAUjS7r8bpwCIm8te2qCOIZXaceGFrqMMypTt2/WxhgbXMZyKWxFg4f8o7wpA0nb/3TgFQOxYq/nPP6+OIVXaPWmi6zQ5Oe+tt7Vg3TqZBN/3z0XUiwALf9+8KwBJ3P134xQAcZMKAl31s5/qpU98XG/MqHYdJ5Sp27Zp/nPPKRUErqNETtSKAAt//7wqAEnd/XfjFABxlLJWC57/pSo7OtR80cWu45yetap97TVd0tCQ6Ff8F4LrIsDCH45XBSDJu/9unAIglqzVpRte0th97+rFqxaqszJaRb0806n5z/1S5+94w3WUWCl1EWDhz403BSDpu/9unAIgzibu3KlRB/+fXrxqod4bH437yOfs26sFa9fpjKNHXUeJrWIXARb+wfGmAPiw++/GKQDibPiRI/rkj57WjunT9PK8+eqocvNvt7KjQx9raND01laO/Auk0EWAhT8/XhQAX3b/3TgFQOxZq6mvb9N5b72lrbWz1Dp7tjoqK0ty6cqOdlVv2qzqzZsTNbEwSvItAiz8heFFAfBp99+NUwAkQUVHp2Zv3KiaTZu0raZab8yoVtvo0UW51qiDB3XB1q2a3tqqNG/pWxK5FgEW/sJKfAHwbfffjVMAJEk6k1HNa5tU89omHTzrTO2cNk17zztPbaPHyBozqMc01mr0wYMa9847mrx9u8YcOFDg1AhroCLAwl8ciS8APu7+u3EKgCQa86sDGvOrA5JeUvuQIdo/frwOjx6tw6NG6fCokcpUVKqzslLZdLkkKZ3NqKKjQ+WdHRrZ1qaRbYc18uBBjd23T0Pa290+GXzEB0Vg8tkauvDkmOjj6zYpu/M9x8mSaXDVOQcHvnAnr54BACBHZ/71A0Vdo719O2AAAHxGAQAAwEMUAAAAPEQBAADAQxQAAAA8RAEAAMBDFAAAADxEAQAAwEMUAAAAPEQBAADAQxQAAAA8RAEAAMBDFAAAADxEAQAAwEMUAAAAPEQBAADAQxQAAAA8RAEAAMBDFAAAADxEAQAAwEMUAAAAPEQBAADAQxQAAAA8RAEAAMBDFAAAADxEAQAAwEMUAAAAPEQBAADAQxQAAAA8RAEAAMBDFAAAADxkXAcAUDw333i3zefzH3vim/yMABKKEwAAADxEAQAAwEMUAAAAPEQBAADAQxQAAAA8RAEAAMBDFAAAADxEAQAAwEMUAAAAPEQBAADAQxQAAAA8RAEAAMBDFAAAADxEAQAAwEMUAAAAPEQBAADAQxQAAAA8RAEAAMBDFAAAADxEAQAAwEMUAAAAPEQBAADAQxQAAAA8RAEAAMBDFAAAADxEAQAAwEMUAAAAPEQBAADAQxQAAAA8RAEAAMBDFAAAADxEAQAAwEMUAAAAPEQBAADAQxQAAAA8RAEAAMBDFAAAADxEAQAAwEMUAAAAPEQBAADAQxQAAAA8RAEAAMBDFAAAADxEAQAAwEMUAAAAPEQBAADAQxQAAAA8RAEAAMBDFAAAADxEAQAAwEMUAAAAPEQBAADAQxQAAAA8RAEAAMBDFAAAADxkXAcAUFhr1tiydy5onlIWmAvf+7dXflw+argqhp+hVEW5THlaZeVppSoqlCpPS5KCTFZBZ6e6MlnZTFZBZ0adR99Xpu2ozr7ikt8xpnzruB3Tdi5ZYroczEUd4gAADX1JREFUPzUABUQBAGKufsO2EUplr7JGiyQtlFQrqaLAl+k00mYrrbOB1qZs+vml86cfKfA1AJQQBQCIoVUvt15krP0jWV0tqU5SWYkjZCW9bKRnjNE/3F5Xs6nE1weQJwoAEBMr128ZU1ae+n0rfdZIV7jO8xFGzUb2e2WB/dtb59bucx0HwMAoAEDE1Tc2X2uVulOyn5SUdp1nAFnJ/Fy2a+WyubXPuA4D4PQoAEAEWWvNg42t11npv8lovus8g/SKNeZbyy6b8U/GGOs6DICPogAAEWKtNasbW5YYY/5c0mzXeQrC6FUr8z8oAkC0UACAiFjV2DrDyD4k6VrXWYrCml/KBLcsmzNzs+soACgAgHOPNzUNbbfDviLpayr8r+9FTdZaPdLRae6+68rqo67DAD6jAAAOrXqp5TqT0qOSznOdpZSMzC6Z4ItL62b+2HUWwFcUAMCBFWvXpkefMe5uSV+XvyO5rbV6sG1Y8OUVtbWdrsMAvqEAACW2umnLJGNT/2ClBa6zRIGVmqzK/vDOORfucJ0F8ImvOw/AiQeamq+XLXuVxf9DRqpLqatpVWPrp1xnAXxCAQBKZHVj860pa34g2VGus0TQaCP7z6ubWpa7DgL4ggIAlEB9U/NdknlI/Jvrj5HVt1c1tt7jOgjgA14DABTRmjW2bM+U1oeNdJPrLHFijZ5oO7rvCysWLcq6zgIkFbsRoEjWrLFl+6a0/j2Lf+6M1Y2jh5/zf9essaV+l0PAGxQAoAistWbf1NZHrfQHrrPEljVL9k5pfcR1DCCpKABAETzY1PpNa/UF1zkS4E9XNbV8w3UIIIl4DQBQYKsamm8xxjzsOkeiWHPHsrnVq13HAJKEAgAU0ANNzdef/FU/TtcKLDBW1y+dW/O06yBAUlAAgAJZ3bRlkmzqFUljXGdJqENBVpfeuaBmp+sgQBKwSwEK4PGmpnJjU/8gFv9iGp1K2++v2LIl6e+YCJQEBQAogBP2jPsY71sKZu6o4+abrlMAScAtACBP9Q0ti63RD8W/p1Kxkr1u2ZyZP3EdBIgzfmABeXi8qWloux3WLOl811l8YmR2lQ3tmnlrbe37rrMAccUtACAPHcGwvxSLf8lZ2YnZY6k/d50DiDNOAIBBWtmwpbbMpF6RVO46i6c6g1TZx+687MIW10GAOOIEABgEa61Jm9RDYvF3qSIVdD1mrWUjAwwCBQAYhNWNLUustNB1DugTDza2/q7rEEAcUQCAHFlrjTGG+88RYY35OqcAQO4oAECO6pu2fkrSbNc50M1+rL6p5T+4TgHEDQUAyJn9iusE6MWar7uOAMQNBQDIQX1j87WSLnedA70YzV/d1LrIdQwgTigAQA6sUne6zhA1QSarw61vuI4hBXa56whAnPDCGSCkVRs2nWPK0u9ISrvOEhVBJqtdP16n47vf1ZmXztTZCy5xGSdru7Ln3TF/9rsuQwBxwQkAEFY6/cdi8f9Az8Vfkg5sbNZ7L77iMlLapMr/yGUAIE4oAEBIRvqM6wxR0Xvx7+a8BBjL9wgIiVsAQAirG5tnSWaT6xxRcLrFvyeXtwNSRhfdXlfD9woYACcAQAhG5j+6zhAFYRZ/ye1JQBCYP3ByYSBmKABACFb2WtcZXAu7+HdzVgKMvab0FwXih1sAwAAeb3pjZLvtPCCpzHUWV3Jd/HtycDsga7rSZy6dP/1IKS8KxA0nAMAAOoLOT4jFf1CLv+TkJCBtyzJXlvKCQBxRAIABWCNvJ8zlu/h3K3kJMMbb7xkQFgUAGNhC1wFcKNTi362kJcD6W9qAsCgAQD/WrLFlkma6zlFqQSarXU+vLdji3+3Axma1tZRkbPCsU987AKdBAQD68c4FzVMkVbrOUUof7Pz3vlfwxx46fqxGTJtU8MftQ+W7528tyYWAuKIAAP1IWzPDdYZSKvSxf09Dx4/VxMWLlCovL/hj9yUw8up7B+SKAgD0w8qfApCkxf8Ub753wGBQAID+WD8WkQQu/pICL753wGBRAIB+GKvzXWfo7XDrGwoy2YI9XrFe8CdJQ8efrYmLr3aw+EvWaHLJLwrECAUA6IeVRrrO0NP+hte055kNevupZxVkMnk/XrFf8Ddx8UKlyl29g7IZ4ejCQCxQAID+GJ3hOkK3/Q2v6VeNJ9/k7sS+/Xr7qbV5lYBkHvt/yEjDnV0ciAEKANC/SCwiPRf/bvmUgKQv/qdE4nsHRBUFAOif80Wkr8W/22BKgCeLvxSB7x0QZRQAoH9ObwH0t/h3y6UEeLT4SxQAoF8UACCiwiz+3cKUAM8WfwADoAAA/XvfxUVzWfy79VcCPF38j7oOAEQZBQDoX8kXkcEs/t36KgGeLv4SBQDoFwUA6F9JF5F8Fv9uPUuAx4u/RAEA+uVqQgcQC0Y6akt0rUIs/t1O7NuvXU+vk6QiDfk5+9TiH90fIZYCAPQruv96gSiwOiJT/Mu0tbxRsMW/WzEWfikei/9J9ojrBECUcQsA6Ic1eqsU1xkx7XwNnXBOKS6VF/fjfcMzVjtdZwCijAIA9MdoaykukypPa+LvLIx0CYjBPf9eUiX53gFxRQEA+mFkS7aIRLkExG/xl6TSlDcgrigAQL/KW0t5tSiWgJgu/gq6bEm/d0DcUACAfozbMW2npI5SXjNKJSCui7+k9gm7qne5DgFEGQUA6MeSJaZLUnOprxuFEhDjxV+Stpz63gE4DQoAMLC1Li7qsgTEfPGXlX3WdQYg6igAwABs4KYASG5KQNwXf0kqU5mz7xkQFxQAYAAdGfOcpKyr65eyBCRh8ZeUPd5hX3AdAog6CgAwgLuurD4q6WWXGUpRAhKy+MtKL536ngHoBwUACMX+q+sExSwBSVn8JclYw/1/IAQKABBCl7V/7zqDVJwSkKTFX5JkgjWuIwBxQAEAQlg+t3aLZP7ddQ6psCUgaYu/lZqWzZm52XUOIA4oAEBYxv6d6wjdClECkrb4S1LKmMh8j4CoowAAIVWUl/8fOfxtgN7yKQFJXPwlZYNs5vuuQwBxQQEAQvrixdPek8zPXefoaTAlIKGLvyT9yx3zZ7/rOgQQFxQAIBe2a6XrCL3lUgISvPgrkCL3vQGizLgOAMTN6saWf5N0uescvQWZrHb9eJ2O7+57E5zkxV9WG5bNrVngOgYQJ5wAADkyVve4ztCX/k4CEr34S0qZ1F+6zgDEDScAQI6stebBptYmK13qOktfep8EJH3xl8y/L62bcakxxrpOAsQJJwBAjowxNjAmkqcA0kdPApK/+EuBCb7B4g/kjhMAYBCstaa+qfUZSYtcZzmdIHPyNxZT5WnHSYrquaV11YsoAEDuOAEABsEYY01XcJukjOssp5MqTyd98e8MUmVfZPEHBocCAAzS0vm1zVZ2lescvjLS/XdedmGL6xxAXFEAgDxUmeMrZLTTdQ4Pvd1R0fk/XYcA4owCAOThprq640b2NkkcQ5eOlTU3ffnii4+5DgLEGQUAyNPSupk/NpYpdKViZe5bNrf6p65zAHFHAQAK4OCxfV+VtN51Dg+8VGXe/7rrEEAS8GuAQIF8u2HTxLRJvyLpTNdZEupQWZm95LZLZ77lOgiQBJwAAAXyZ3Nn77Iyn5cUuM6SQF2S/WMWf6BwKABAAd0xp/opGXOr6xyJY3Tnsjkzf+I6BpAkFACgwJbVVT9mjXhzmgIxVn+xrK7mQdc5gKThNQBAkaxubKmXdLvrHHFmpcfvmFNzs+scQBJxAgAUyfg3q++UsWtc54grI/P9c9+s5nYKUCQUAKBIliwxXeN31PwnyT7mOksMfffg+3v/eMkS0+U6CJBU3AIASqC+qfkua6P7FsJRYmXuvWNO9Vdd5wCSjgIAlMiqhuZbjDEPipO30+mSMbctq6vmxAQoAQoAUEL1DS2LrdETksa4zhIxByT7WX7VDygdCgBQYt9u2DSxzKT/3khXuM4SEY2pwPzh7fOq33QdBPAJR5FAif3Z3Nm72t7ft1DSN+T31EBrreqHmGNXsPgDpccJAODQ6sbm35bMo5Imuc5SYm/Jmpt5Vz/AHU4AAIeWzZn5kyHmWI1OngZ0uM5TAhlrVZ8eGsxi8Qfc4gQAiIjVG5qnq8w8JOmTrrMUyXNdNrh1+dzaLa6DAKAAAJFT39BygzW6W9IlrrMUgpE2dhn73++sm/nPrrMA+BAFAIio1U1br7RB8A1jdLXrLIO03ljdc/uc6h8ZY6zrMAA+igIARNzqptZFCuxyGf2WpLTrPAPIyuqnSpmVy+qq17oOA+D0KABATKxcv2VMWXnq96302cjNEDBqNrLfC7JdT9wxf/a7ruMAGBgFAIihlQ1bastU9ofG2GutNEelPxnISmqwRv+aygbfXzq/trnE1weQJwoAEHP3vtA6fEhl8HFjzdXWaKGkWZIqC3yZDittMkbrZO3a9FD7/K21te8X+BoASogCACTMmjW2bPeUbeenbHChMUG1lWZIZrKkETIaJqvhkkZJOuPUp7wvqU1GR63V+0Y6KmvflFJbJW1NWW09MHfGWyuM8XlqIQAAAAAAAAAAAAAAAAAAAAAAAAAAAAAAAAAAAAAAAAAAAAAAAAAAAAAAAAAAAAAAADzw/wGQL3IJkgPy/QAAAABJRU5ErkJggg==;" parent="1" vertex="1">
                    <mxGeometry x="325" y="634.81" width="100" height="100" as="geometry"/>
                </mxCell>
                <mxCell id="29" style="edgeStyle=none;html=1;fontColor=#FFFFFF;" parent="1" source="8" target="28" edge="1">
                    <mxGeometry relative="1" as="geometry"/>
                </mxCell>
                <mxCell id="8" value="PipelineÂ remote_opensearch.conf" style="shape=image;verticalLabelPosition=bottom;labelBackgroundColor=default;verticalAlign=top;aspect=fixed;imageAspect=0;image=data:image/png,iVBORw0KGgoAAAANSUhEUgAAAgAAAAIACAYAAAD0eNT6AAAABHNCSVQICAgIfAhkiAAAAAlwSFlzAAAOxAAADsQBlSsOGwAAABl0RVh0U29mdHdhcmUAd3d3Lmlua3NjYXBlLm9yZ5vuPBoAACAASURBVHic7d1/fNXVnefx97m5SQjIT0VBBAFBEgJaNfxSW0GdzuyMtI4zw8zuTru2sx2tP0CZtrY79jF0trtVxyLE3zuzrdPZfcyUma5TbTv9MQpaBzGJOAokQRBR5IdSIIBAknvzPfsHRGMaku/N/XG+3+95Pf9pC8n9vm9Sct7nfG8+VwIAAAAAAAAAAAAAAAAAAAAAAAAAAAAAAAAAAAAAAAAAAAAAAAAAAAAAAAAAAAAAAAAAAAAAAAAAAAAAAAAAAAAAAAAAAAAAILqM6wAu2d2NV0jWmglz17vOAgAojPZHvjU1CFKrJSmVCpYNueVrO1xniiLfC8CTpwrADa6zAADyY1eurDpenrnLGN0lacipPz5hre4besaJe8znVrS7zBc13hYAu2vDdKVSrZIkk6o159a1Oo4EABikYw/fs9hYs0rS1NN8yA5r7B3Dbv3q06XMFWX+FoA9jY/K2pslSUaPmnPn3uI4EgAgRz2O+68L+Sk/4rbASV4WALt341gF2bckVZ36o3alg8nmnPnvuswFAAjnNMf9YXFbQFLKdQAngsyt+nDxl6QhypovuooDAAjv2MP3LD5RkdlsjP5CuS/+klRljP7ixLGqLccevmdxofPFhXcnAHZP01DZYKeksb3+6oDKKs834y4+5iAWAGAAgzjuD8vL2wL+FYDdDbdIerjvv9Qt5ry5j5Y2EQCgP3ke94fl3W0BrwqAtTalPY2tkqb3/QHaoQk7LzRmSVdpkyXX6sYW6zpDnC2bU+PVv9FcPPrq9rM7splLUtbMsNIMWc2Q7NmShkkafeo/JemYpEOn/vNdGfO6ZFuNtFWp9CtLL52+39FTQAghXt1faN78toBXP1zsnoYbZPWDfj/I2BvMufOeLFGkxKMA5IcC8KHHm5qGttszfsNae7UxWiRplvL/GWYlbZKxa61NPRtkhv1i+eUTT+SfFvkq4nF/WIm/LeDVDxe7u2G9pAX9fpBRgzl37rzSJEo+CkB+fC8AK6xNjX759ctlg89I+iNJI4p8ySOS+aGx9h/H7az+yZIlhtPAEivRcX9Yib4t4M0Pl1Njf18I+eFXMB64MCgA+fG1AHx37ZtDDg878XljzJckTXEUY4cx5n6NLPvO0unTOxxl8IqD4/6wEnlbwJsfLqfG/l4f8sOfZDxwYVAA8uNbAXi8qWloezDsFhktlzTedZ5T9sro/iE69thNdXXHXYdJoggc94eVqNsCXvxw6TH2N+zcg4DxwIVBAciPTwWgvqFlsU2pXlaTXWc5jXeMzJ1L51T/k+sgSRGx4/6wEnNbwI9BQGVly5Xbc01JwdJixQHwoQdebJm8uqHlaWv0VIQXf0k6z8r+Y31jyw9XN22Z5DpM3BVgmI8riRkilPjdRR9jf8NiPHABcAKQn6SfADzQ1Hx9yprv6OSv7cXJEVnzhWVzq9e4DhI3MTruDyu2twXSrgMUXZC5VTK5Lv7Sh+OBVxQ4EeC9+m3bKoND2fuMVVxP2kbI2O+vbmy5xoxKL+VFggPrPu4Pglgd94dxXRCkrjn24L2xuy2Q6FsAdk/TUMnk8S5/5ja779VhA38cgLAeeqnlTHsou86Y2C7+Pf1p0JZ9ZuX6LWNcB4myGB/3hxXL2wKJLgCywY369Zn/uThT2Y7PFigN4L0HN7ae25XSWhnNd52lUIx0RVm5eeHbDZsmus4SNe2PfGvq8YfufdpY85Si96t9xTDVWPPU8Yfufbr9kW9F/vkmtgBYa1OS7ijAQ33J2jVlBXgcwGsPNm2ttl3aIGm26yyFZ2rSJv3CqsbWGa6TRIFdubLq2IP3rgiC1BYl515/Lq4LgtTmYw/eu8J+d0VkTzwSWwC0t/F6nW7mfy6Mpmrv+Z/KPxDgr5Xrt04IbPBTK5vkXfIkY+wzD21sPt91EJc8OO4PK/K3BZJbAKy+VLgHM18t3GMBfnnopZYzy8q7fiEp+Quj1YSuwPzEx9cEeHjcH1ZkbwsksgCcHPs7wMz/nB5Qc+3uhssL9niAJ+q3bavsMvqRZGpcZykZq5ll5amn67dtq3QdpRQ47g8tcrcFElkApELu/ov6mECi2bbst5P0gr8cXB4cyt7nOkSxcdyfs0jdFkhcAbC7NkyXbDHu2X/a7mmqLsLjAolU39j6+5JudZ3DFWO0tL6hJdHvKcJx/6BNPfW1cypxBWAQY3/DYjwwENIDL7ZMtrJ/4zqHa9aY/+37iwIRXYkqAHbvxrGy9r8U7wL6nH13wzlFe3wgIVJp1Usa6TqHe3ZUV5dWu04B9CVRBeDk2N+cZ/7nons8MIDTeKCp+XpJzu9vRof5dH1DC18PRE5iCkD+Y3/DYjwwcDqPNzUNTVmzynWOqLFGq1eu31XMzQmQs8QUgAKM/Q2L8cDAaXTYM26VD7/vn7sp6fKjN7kOAfSUiAJQwLG/YTEeGOilftu2Sitbyn+HsWJlvvLdtW/yq3KIjEQUgIKN/Q2L8cDArwkOZf5E0rmuc0TY+KNntBfvRcpAjpJRAAo69jcsxgMD3VZYmzLGMCxrAFb2y9Za4zoHICWgABR87G/oCzMeGOg2+uWtV0ma4jpH9JkLVje2fNx1CkBKQAGQ2xG97HgASbL2M64jxIVRiq8VIiHWBaCIY3/DYjwwvHfq19sSPfK2oIxdwq8EIgpiXQCKOPY3LMYDw3tl5cc+Kab+5WJEuuLo1a5DALEtAEUf+xs6COOB4TdrLYtZrgKzyHUEILYFoARjf8NiPDC8ZoxYzHJkjbnGdQYglgWgdGN/w2I8MPz06Kvbz5Y0y3WO+LEX3d+09SzXKeC3WBaAEo79DYvxwPBSRzZziSR+rz13qQrb9THXIeC32BUAB2N/w2I8MLyTsmaG6wxxZSW+dnAqdgWg5GN/w2I8MDzEIpYPyhPcil8BcDL2NyzGA8Mz1l7oOkKMUQDgVKwKgLOxv2ExHhj+Gec6QIzxtYNTsSoAisfo3ThkBApluOsAMcbXDk7FpgBEYOxvWIwHhk9YxAaPrx2cik0BiMDY37AYDwyfnOE6QIxRAOBUHBbU6Iz9DYvxwACAiItFAYjQ2N+wGA8MX7zvOkCMHXUdAH6LfAGI3tjfsBgPDC+wiA0eXzs4FfkCEMGxv2ExHhg+YBEbPL52cCrSBSDCY3/DYjwwkm6f6wAxxtcOTkW6AER27G9YjAdG0hnzuusIMbbVdQD4LdoFINJjf8NiPDCSy7CI5cHytYNTkS0AkR/7GxbjgZFggWERGyzKE1yLbAFQskbqJum5AB9ImfRGSdZ1jhgKUoF5xXUI+C2SBSBGY3/DYjwwEmnppdP3S9rsOkcMvXrbvJoDrkPAb5EsADEa+xsW44GRXMY+6zpC3BgrvmZwLnKLbOzG/obFeGAklLUpFrMcWUoTIiByBSCGY3/DYjwwEinIDPuFpMOuc8TI4a7M8LWuQwCRKgDxHfsbFuOBkTzLL594QrI/cJ0jLozRmpNfM8CtSBWAGI/9DYvxwEikQObvXGeIDRPwtUIkRKYAJGDsb1iMB0biHK6rfl7SDtc5os5I22+/dOYLrnMAUoQKQOzH/obFeGAk0ApjAmPM/a5zRJ2V/soYw9wEREJ0CkAixv6GxXhgJNDIsu9I2uM6RoS9Y0al/9Z1CKBbJApAYsb+hsV4YCTQ0unTO6zRStc5osoY81dLp0/vcJ0D6BaJAiA/R+X6+JyRcFU69qiMdrrOET32jeFHK/+X6xRAT84LQALH/obFeGAkzk11dcdTNpXgX+UdHGO07HOLprS7zgH05LwAJHDsb1iMB0Yi3T5nxr8Y6SnXOSLD6MmldTN/7DoG0JvThTexY3/DYjwwEsqa4HbJtLnOEQGHskF2mesQQF/c7ryTO/Y3LMYDI5GW1dW+bQP7Gfn9VsFWgf2TP5s7e5frIEBfnBWA5I/9DYvxwEimO+bV/MhaPeg6h0Orls2b+aTrEMVkjf2UGAA1GDtOfe2ccncCkPyxv2ExHhiJlRqd/oqk9a5zlJw1vzw0NEj8vI9ht3716arO8lnW6huSeJHjwE5Yq29UDTtRO+zWrz7tOoxxcVFrbUp7Glvlw+S/MKx2aMLOC41Z0uU6SqGtbmzx+Qg4b8vm1Dj5N1pIjze9MbJdnc/J6mLXWUrBSFuymeATyy+vPeg6Sym1P/KtqUGQWi3pOtdZIupHqVSwbMgtX4vMiYmbEwBfxv6GxXhgJNhNdRcc7upM/Y6kt1xnKYF3rAl+27fFX5KG3PK1HUNvu2sxtwV+zQ5r7KeG3nbX4igt/pKrAuDV2N+wGA+M5Fp++YzdVuY3Jb3tOksRvV0W6JpldbVJfo4D4rbAByJ13N+Xkh8vnhz7a3k3rL5dYSbMTdT9Um4B5CcJtwB6eqCpeXzKmp9Kush1loIyas4G2d/iFf8f5fFtgcgd9/fFxQkAu//T42uDRLuzbuberkywSEl6YaA1vyyvyFzJ4v/rPLwtENnj/r6UtAB4PPY3LMYDI/GWX1578ND7+66yMvcq3nMCrLWqPzSs69pbLrrokOswUebBbYHIH/f3paTHi3ZP46Oy9uZSXjN2jB41585NzHwEbgHkJ2m3AHpb3dj6acl+V9Jo11lydMQa81/vqKv+R9dB4iaBtwVicdzfl5L9cLF7N45VkH1Lfk/+C6Nd6WCyOWf+u66DFAIFID9JLwCS9NDG5vODLlNvpXicDho9mQ2yyzjyz8+xh+9ZbKxZJWmq6yyDtMMae0ecdvy9le4WAGN/w2I8MLxy26Uz31o6p+bTNtBiSW+6ztOPHcbY65bV1dzA4p+/GN8WiOVxf19Ksruwe5qGygY7xeS/sA6orPJ8M+7iY66D5IsTgPz4cALQ08r1u6rS5UdvssZ8SVYTXOc55R1Zc/+IY5WP85a+xRGj2wKxPe7vS2kKwO6GWyQ9XIprJYbVLea8uY+6jpEvCkB+fCsA3eq3batUW/ZGK/tlyVzgIoORtlvprw4NDZ5YUVvb6SKDbyJ8WyD2x/19KfoPF8b+DlJCxgNTAPLjawHoafXLLZfZLn3WGP1nSWcW+XKHJfOUUfC92+tqnjHG8P/fErMrV1YdL8/cZYzukjTEcZwT1uq+oWecuMd8bkXiTn+KXwD2NNwgqx8U+zqJZOwN5tx5sX43MQpAfigAH/ru2jeHHB1+4hprzTWSWSTZi5T/65gCSa9KWivZZ0a8X/Usx/zREIHbAok67u9L8QvA7ob1khYU+zqJZNRgzp07z3WMfFAA8kMBOL37m7aetfeHv9hfMWqEKkePVMWoESobWqmy8nKlKiuUSqclSUE2q6CjU12ZjLqOtavz8FF1HDqszkNHNGXxNWfdNq/mgOOngn44uC2QyOP+viT+h8vNN96d1wL02BPfTPzXKMn4/icb318/lOi2QKKP+/uSdh0AAID+mOXLT0ha0f7It75XpNsCiT/u7wsFAAAQC6cW6MUFvC3gzXF/X9y8HTAAAIPUPUToZ3s6lQly//xMYPWzPZ1KwjCffFAAAACxY5YvP/GzPR26b8v7aj6cDf15zYezum/LMf1sT4d8udd/OtwCAADE1oEOq7/ZdkK1o9K6fuIQnVnZ9+s6D3RY/fOudm1pC18Wko4CAACIvS1tWb1+5JiuHlehq8dVqPzU+XYmsHp2X0bP7usY1O2CJKMAAAAS4eS9/Q41HejU7046+duCT77drgMdjCPpCwUAAJAo3bcF0D9eBAgAgIcoAAAAeIgCAACAhygAAAB4iAIAAICHKAAAAHiIAgAAgIcoAAAAeIgCAACAhygAAAB4iAIAAICHKAAAAHiIAgAAgIcoAAAAeIgCAACAhygAAAB4iAIAAICHKAAAAHiIAgAAgIcoAAAAeIgCAACAhygAAAB4iAIAAICHjOsAxXbzjXdb1xkAANHz2BPfTPwa2B9OAAAA8BAFAAAAD1EAAADwEAUAAAAPUQAAAPAQBQAAAA9RAAAA8BAFAAAAD1EAAADwEAUAAAAPUQAAAPAQBQAAAA9RAAAA8BAFAAAAD1EAAADwkNfvhQwk3c033m3z+Xzf3y8dSDJOAAAA8BAFAAAAD1EAAADwEAUAAAAPUQAAAPAQBQAAAA9RAAAA8BAFAAAAD1EAAADwEAUAAAAPUQAAAPAQBQAAAA9RAAAA8BAFAAAAD1EAAADwEAUAAAAPUQAAAPAQBQAAAA9RAAAA8BAFAAAAD1EAAADwEAUAAAAPUQAAAPAQBQAAAA9RAAAA8BAFAAAAD1EAAADwEAUAAAAPUQAAAPAQBQAAAA9RAAAA8BAFAAAAD1EAAADwEAUAAAAPUQAAAPAQBQAAAA9RAAAA8BAFAAAAD1EAAADwkCn2BQ584U5b7GsAAJA0Z/71A0VdozkBAADAQxQAAAA8RAEAAMBDFAAAADxEAQAAwEMUAAAAPEQBAADAQxQAAAA8RAEAAMBDFAAAADxEAQAAwEMUAAAAPEQBAADAQxQAAAA8RAEAAMBDFAAAADxEAQAAwEMUAAAAPEQBAADAQxQAAAA8RAEAAMBDFAAAADxEAQAAwEMUAAAAPEQBAADAQxQAAAA8RAEAAMBDFAAAADxEAQAAwEMUAAAAPEQBAADAQ2nXAZKsfEKFJCmzu9Nxkvga/vnLXEdw6uh3XnYdIdI6qqr07vjxahs9WkdGjdKRkSPVWVmpzopKZctP/nhLZ7Kq6OxQRUeHRrS1aWRbm0YeOqRz9u1T5YkTjp8B+pKeNFZVC2fJpMt0Yt1mZXbscx0pkSgARTRkTpUkCgBQSAfGnq2d0y7Q3gkT1DZ6tGRMvx/fWVmhzsoKafhwHTzrrA//wlqNOnRI49/ZrSnbt2vMr/YXOTkG0r3wl08d98GfDf/sImXf3k8RKAIKQJGUT6j44ASgfEIFJQDIQ6a8QttqavTGjAt1ePTowjyoMWobM0ZtY8ao5aLZGtnWpgtat2p6S7PKM5nCXAOh9LXw9/57ikDhUQCKpHv33/3fKQBA7joqK9U6e7a21s46uYsvosOjRmnj/HnafMklqt68SdWbN6mig3+3xTTQwt/Xx1MECocCUAQ9d/89/zclAAjJGO2YPk0b581Xe1XVwB9fQJ2VFXrtssu0ddYszX55o2Zs2SxjbUkzJF2uC39fn08RyB8FoAh67v57/hkFABjY0ZEjtH7hIu0/5xynOToqK9V0+QK9NXWKLl+3TsOPHHGaJwnyXfj7ejyKwOBRAAqs9+6/959TAoDT2zV5sl68amHRj/tzsX/cOP3k935P855/XpPfeMN1nFgq9MLf1+NTBHJHASiwvnb/Pf+OAgD8OmuMXp6/QK2zZ7mO0qdMebleuOYaHRh7ti59aQO3BEIq9sLf1/UoAuFRAArodLv/3n9PCQA+1FWW0otXLdTOadNcRxlQy0Wz1T60SgvWrVMqCFzHiaxSL/x9XZ8iMDAKQAH1t/vv+TEUAOCkrrKUnv+N39TuSRNdRwntzWnT1FlRoat+/nNKQC+uF/7eKAL9owAUyEC7/94fRwmA94zRSx+/KlaLf7fdkyZp/cKFumLtWm4HKHoLf28Ugb5RAAokzO6/58dSAOC7pvkLtOPC6a5jDNrOadM09PgxXbrhJddRnIn6wt8bReCjKAAFEHb33/vjKQHw1VtTp0b2BX+5aL7oYo351QFN3r7ddZSSitvC3xtF4CQKQAHksvvv+TkUAPjo6IgR2vCJT7iOUTAvXXmlznzvPS/mBMR94e/N9yLA2wHnKdfdf76fB8SaMVq/aJEyFcn5/36mokIvXrVwwDclirPuhXLE569NzOLfU9Kf3+lwApCnwez+e34upwDwyfYZM5xP+CuG98aP047p0zX19dddRymopO34B+LbiQAnAHnIdxfPKQB80lFZqX+fO9d1jKJ5ed68SE0wLATfdsTduotA0lEA8pDP7r+QjwHEQevs2WofMsR1jKLpqKrS1tr4v7AR/qAADFKhdu+cAsAHmfIKLxbH1tmzlSkvdx0DCIUCMEiF3LlzCoCk21ZTk7jj8b50VFZqe0216xhAKBSAQSj0rp1TACRdnAf+5Gp7dY3rCEAoFIBBKMaOnVMAJNWBsWerbcwY1zFK5vCoUTp41pmuYwADogDkqFi7dU4BkFQ7p13gOkLJxeGdDQEKQI6KuVPnFABJtPe881xHKLl9E/x7zogfCkAOir1L5xQASdNRVaW2UaNcxyi5g2PGJPpXHpEMFIAclGKHzikAkuTd8eMTPSL3tIzR/vHjXacA+kUBCKlUu3NOAZAkbaNHu47gjM/PHfFAAQiplDtzTgGQFEc8PP7vdmTUSNcRgH5RAEIo9a6cUwAkxZER/i6CR0b6+9wRDxSAEFzsyDkFQBJ0ePxCuI4h/BtGtFEABuBqN84pAJIgW+HvXPws7wmAiKMADMDlTpxTAMRdNu3vIsibAiHqKAD9cL0Ld319AEByUQD6EYUdeBQyAIOVzmZcR3CmPOPvc0c8UABOIyq776jkAAYj3envIpimACDiKACnEaWdd5SyALmobG93HcGZyvYTriMA/aIA9CFqu+6o5QHCGnG4zXUEZ0a2HXYdAegXBaAPUdxxRzETMJARh/1dBH1+7ogHCkAvUd1tRzUX0J9RBw+6juDMSI+fO+KBAtBLlHfaUc4G9OWcffska13HKDljrcbu2+c6BtAvCkAPUd9lRz0f0FvliRMadeiQ6xglN/rAQQ3x+AWQiAcKQA9x2GHHISPQ0/jdu11HKLlxu99xHQEYEAXglLjsruOSE+g2Zdt21xFKbvJ2/54z4ocCcEqcdtZxygqM+dV+r14MOLKtTWMOHHAdAxgQBUDx21XHLS8w9fVtriOUzLTWFtcRgFAoAIrnjjqOmeGv6S3NqujodB2j6Co7OjStpdV1DCAU7wtAXHfTcc0NP5VnMpqxZbPrGEVXvWkTbwKE2PC+AMR5Jx3n7PBPzabXNOREcufjDzlxQtWbk19ykBxeF4C476Ljnh9+qejo1CUNja5jFM1lGzaovDNZtzmOfOdfldnh30Cj7Nv7dfR7a13HKLq06wAuJWEHPWROlTK7k/VDB8l1wetbtX3Ghdo/bpzrKAV1zr69mpLAX/3rXgjTk8aqauEslU9N1vett+zb+3Vi3WZvSo+3JwBJ2T0n5XnAE9bq8nXrErVTrujo1Px1zyV65HF3EUjqiUDSn9/peHsCkITdfzdOARAnw48c0YLnn9fz117rOkpBLHj+OQ0/csR1jJJI2omAbzv+3rwsAEnbNXc/H0oA4mLSjh2qeW2TWi6a7TpKXmpffVUT33zTdYySi3sR8H3h7+ZlAUjS7r8bpwCIm8te2qCOIZXaceGFrqMMypTt2/WxhgbXMZyKWxFg4f8o7wpA0nb/3TgFQOxYq/nPP6+OIVXaPWmi6zQ5Oe+tt7Vg3TqZBN/3z0XUiwALf9+8KwBJ3P134xQAcZMKAl31s5/qpU98XG/MqHYdJ5Sp27Zp/nPPKRUErqNETtSKAAt//7wqAEnd/XfjFABxlLJWC57/pSo7OtR80cWu45yetap97TVd0tCQ6Ff8F4LrIsDCH45XBSDJu/9unAIglqzVpRte0th97+rFqxaqszJaRb0806n5z/1S5+94w3WUWCl1EWDhz403BSDpu/9unAIgzibu3KlRB/+fXrxqod4bH437yOfs26sFa9fpjKNHXUeJrWIXARb+wfGmAPiw++/GKQDibPiRI/rkj57WjunT9PK8+eqocvNvt7KjQx9raND01laO/Auk0EWAhT8/XhQAX3b/3TgFQOxZq6mvb9N5b72lrbWz1Dp7tjoqK0ty6cqOdlVv2qzqzZsTNbEwSvItAiz8heFFAfBp99+NUwAkQUVHp2Zv3KiaTZu0raZab8yoVtvo0UW51qiDB3XB1q2a3tqqNG/pWxK5FgEW/sJKfAHwbfffjVMAJEk6k1HNa5tU89omHTzrTO2cNk17zztPbaPHyBozqMc01mr0wYMa9847mrx9u8YcOFDg1AhroCLAwl8ciS8APu7+u3EKgCQa86sDGvOrA5JeUvuQIdo/frwOjx6tw6NG6fCokcpUVKqzslLZdLkkKZ3NqKKjQ+WdHRrZ1qaRbYc18uBBjd23T0Pa290+GXzEB0Vg8tkauvDkmOjj6zYpu/M9x8mSaXDVOQcHvnAnr54BACBHZ/71A0Vdo719O2AAAHxGAQAAwEMUAAAAPEQBAADAQxQAAAA8RAEAAMBDFAAAADxEAQAAwEMUAAAAPEQBAADAQxQAAAA8RAEAAMBDFAAAADxEAQAAwEMUAAAAPEQBAADAQxQAAAA8RAEAAMBDFAAAADxEAQAAwEMUAAAAPEQBAADAQxQAAAA8RAEAAMBDFAAAADxEAQAAwEMUAAAAPEQBAADAQxQAAAA8RAEAAMBDFAAAADxkXAcAUDw333i3zefzH3vim/yMABKKEwAAADxEAQAAwEMUAAAAPEQBAADAQxQAAAA8RAEAAMBDFAAAADxEAQAAwEMUAAAAPEQBAADAQxQAAAA8RAEAAMBDFAAAADxEAQAAwEMUAAAAPEQBAADAQxQAAAA8RAEAAMBDFAAAADxEAQAAwEMUAAAAPEQBAADAQxQAAAA8RAEAAMBDFAAAADxEAQAAwEMUAAAAPEQBAADAQxQAAAA8RAEAAMBDFAAAADxEAQAAwEMUAAAAPEQBAADAQxQAAAA8RAEAAMBDFAAAADxEAQAAwEMUAAAAPEQBAADAQxQAAAA8RAEAAMBDFAAAADxEAQAAwEMUAAAAPEQBAADAQxQAAAA8RAEAAMBDFAAAADxEAQAAwEMUAAAAPEQBAADAQxQAAAA8RAEAAMBDFAAAADxkXAcAUFhr1tiydy5onlIWmAvf+7dXflw+argqhp+hVEW5THlaZeVppSoqlCpPS5KCTFZBZ6e6MlnZTFZBZ0adR99Xpu2ozr7ikt8xpnzruB3Tdi5ZYroczEUd4gAADX1JREFUPzUABUQBAGKufsO2EUplr7JGiyQtlFQrqaLAl+k00mYrrbOB1qZs+vml86cfKfA1AJQQBQCIoVUvt15krP0jWV0tqU5SWYkjZCW9bKRnjNE/3F5Xs6nE1weQJwoAEBMr128ZU1ae+n0rfdZIV7jO8xFGzUb2e2WB/dtb59bucx0HwMAoAEDE1Tc2X2uVulOyn5SUdp1nAFnJ/Fy2a+WyubXPuA4D4PQoAEAEWWvNg42t11npv8lovus8g/SKNeZbyy6b8U/GGOs6DICPogAAEWKtNasbW5YYY/5c0mzXeQrC6FUr8z8oAkC0UACAiFjV2DrDyD4k6VrXWYrCml/KBLcsmzNzs+soACgAgHOPNzUNbbfDviLpayr8r+9FTdZaPdLRae6+68rqo67DAD6jAAAOrXqp5TqT0qOSznOdpZSMzC6Z4ItL62b+2HUWwFcUAMCBFWvXpkefMe5uSV+XvyO5rbV6sG1Y8OUVtbWdrsMAvqEAACW2umnLJGNT/2ClBa6zRIGVmqzK/vDOORfucJ0F8ImvOw/AiQeamq+XLXuVxf9DRqpLqatpVWPrp1xnAXxCAQBKZHVj860pa34g2VGus0TQaCP7z6ubWpa7DgL4ggIAlEB9U/NdknlI/Jvrj5HVt1c1tt7jOgjgA14DABTRmjW2bM+U1oeNdJPrLHFijZ5oO7rvCysWLcq6zgIkFbsRoEjWrLFl+6a0/j2Lf+6M1Y2jh5/zf9essaV+l0PAGxQAoAistWbf1NZHrfQHrrPEljVL9k5pfcR1DCCpKABAETzY1PpNa/UF1zkS4E9XNbV8w3UIIIl4DQBQYKsamm8xxjzsOkeiWHPHsrnVq13HAJKEAgAU0ANNzdef/FU/TtcKLDBW1y+dW/O06yBAUlAAgAJZ3bRlkmzqFUljXGdJqENBVpfeuaBmp+sgQBKwSwEK4PGmpnJjU/8gFv9iGp1K2++v2LIl6e+YCJQEBQAogBP2jPsY71sKZu6o4+abrlMAScAtACBP9Q0ti63RD8W/p1Kxkr1u2ZyZP3EdBIgzfmABeXi8qWloux3WLOl811l8YmR2lQ3tmnlrbe37rrMAccUtACAPHcGwvxSLf8lZ2YnZY6k/d50DiDNOAIBBWtmwpbbMpF6RVO46i6c6g1TZx+687MIW10GAOOIEABgEa61Jm9RDYvF3qSIVdD1mrWUjAwwCBQAYhNWNLUustNB1DugTDza2/q7rEEAcUQCAHFlrjTGG+88RYY35OqcAQO4oAECO6pu2fkrSbNc50M1+rL6p5T+4TgHEDQUAyJn9iusE6MWar7uOAMQNBQDIQX1j87WSLnedA70YzV/d1LrIdQwgTigAQA6sUne6zhA1QSarw61vuI4hBXa56whAnPDCGSCkVRs2nWPK0u9ISrvOEhVBJqtdP16n47vf1ZmXztTZCy5xGSdru7Ln3TF/9rsuQwBxwQkAEFY6/cdi8f9Az8Vfkg5sbNZ7L77iMlLapMr/yGUAIE4oAEBIRvqM6wxR0Xvx7+a8BBjL9wgIiVsAQAirG5tnSWaT6xxRcLrFvyeXtwNSRhfdXlfD9woYACcAQAhG5j+6zhAFYRZ/ye1JQBCYP3ByYSBmKABACFb2WtcZXAu7+HdzVgKMvab0FwXih1sAwAAeb3pjZLvtPCCpzHUWV3Jd/HtycDsga7rSZy6dP/1IKS8KxA0nAMAAOoLOT4jFf1CLv+TkJCBtyzJXlvKCQBxRAIABWCNvJ8zlu/h3K3kJMMbb7xkQFgUAGNhC1wFcKNTi362kJcD6W9qAsCgAQD/WrLFlkma6zlFqQSarXU+vLdji3+3Axma1tZRkbPCsU987AKdBAQD68c4FzVMkVbrOUUof7Pz3vlfwxx46fqxGTJtU8MftQ+W7528tyYWAuKIAAP1IWzPDdYZSKvSxf09Dx4/VxMWLlCovL/hj9yUw8up7B+SKAgD0w8qfApCkxf8Ub753wGBQAID+WD8WkQQu/pICL753wGBRAIB+GKvzXWfo7XDrGwoy2YI9XrFe8CdJQ8efrYmLr3aw+EvWaHLJLwrECAUA6IeVRrrO0NP+hte055kNevupZxVkMnk/XrFf8Ddx8UKlyl29g7IZ4ejCQCxQAID+GJ3hOkK3/Q2v6VeNJ9/k7sS+/Xr7qbV5lYBkHvt/yEjDnV0ciAEKANC/SCwiPRf/bvmUgKQv/qdE4nsHRBUFAOif80Wkr8W/22BKgCeLvxSB7x0QZRQAoH9ObwH0t/h3y6UEeLT4SxQAoF8UACCiwiz+3cKUAM8WfwADoAAA/XvfxUVzWfy79VcCPF38j7oOAEQZBQDoX8kXkcEs/t36KgGeLv4SBQDoFwUA6F9JF5F8Fv9uPUuAx4u/RAEA+uVqQgcQC0Y6akt0rUIs/t1O7NuvXU+vk6QiDfk5+9TiH90fIZYCAPQruv96gSiwOiJT/Mu0tbxRsMW/WzEWfikei/9J9ojrBECUcQsA6Ic1eqsU1xkx7XwNnXBOKS6VF/fjfcMzVjtdZwCijAIA9MdoaykukypPa+LvLIx0CYjBPf9eUiX53gFxRQEA+mFkS7aIRLkExG/xl6TSlDcgrigAQL/KW0t5tSiWgJgu/gq6bEm/d0DcUACAfozbMW2npI5SXjNKJSCui7+k9gm7qne5DgFEGQUA6MeSJaZLUnOprxuFEhDjxV+Stpz63gE4DQoAMLC1Li7qsgTEfPGXlX3WdQYg6igAwABs4KYASG5KQNwXf0kqU5mz7xkQFxQAYAAdGfOcpKyr65eyBCRh8ZeUPd5hX3AdAog6CgAwgLuurD4q6WWXGUpRAhKy+MtKL536ngHoBwUACMX+q+sExSwBSVn8JclYw/1/IAQKABBCl7V/7zqDVJwSkKTFX5JkgjWuIwBxQAEAQlg+t3aLZP7ddQ6psCUgaYu/lZqWzZm52XUOIA4oAEBYxv6d6wjdClECkrb4S1LKmMh8j4CoowAAIVWUl/8fOfxtgN7yKQFJXPwlZYNs5vuuQwBxQQEAQvrixdPek8zPXefoaTAlIKGLvyT9yx3zZ7/rOgQQFxQAIBe2a6XrCL3lUgISvPgrkCL3vQGizLgOAMTN6saWf5N0uescvQWZrHb9eJ2O7+57E5zkxV9WG5bNrVngOgYQJ5wAADkyVve4ztCX/k4CEr34S0qZ1F+6zgDEDScAQI6stebBptYmK13qOktfep8EJH3xl8y/L62bcakxxrpOAsQJJwBAjowxNjAmkqcA0kdPApK/+EuBCb7B4g/kjhMAYBCstaa+qfUZSYtcZzmdIHPyNxZT5WnHSYrquaV11YsoAEDuOAEABsEYY01XcJukjOssp5MqTyd98e8MUmVfZPEHBocCAAzS0vm1zVZ2lescvjLS/XdedmGL6xxAXFEAgDxUmeMrZLTTdQ4Pvd1R0fk/XYcA4owCAOThprq640b2NkkcQ5eOlTU3ffnii4+5DgLEGQUAyNPSupk/NpYpdKViZe5bNrf6p65zAHFHAQAK4OCxfV+VtN51Dg+8VGXe/7rrEEAS8GuAQIF8u2HTxLRJvyLpTNdZEupQWZm95LZLZ77lOgiQBJwAAAXyZ3Nn77Iyn5cUuM6SQF2S/WMWf6BwKABAAd0xp/opGXOr6xyJY3Tnsjkzf+I6BpAkFACgwJbVVT9mjXhzmgIxVn+xrK7mQdc5gKThNQBAkaxubKmXdLvrHHFmpcfvmFNzs+scQBJxAgAUyfg3q++UsWtc54grI/P9c9+s5nYKUCQUAKBIliwxXeN31PwnyT7mOksMfffg+3v/eMkS0+U6CJBU3AIASqC+qfkua6P7FsJRYmXuvWNO9Vdd5wCSjgIAlMiqhuZbjDEPipO30+mSMbctq6vmxAQoAQoAUEL1DS2LrdETksa4zhIxByT7WX7VDygdCgBQYt9u2DSxzKT/3khXuM4SEY2pwPzh7fOq33QdBPAJR5FAif3Z3Nm72t7ft1DSN+T31EBrreqHmGNXsPgDpccJAODQ6sbm35bMo5Imuc5SYm/Jmpt5Vz/AHU4AAIeWzZn5kyHmWI1OngZ0uM5TAhlrVZ8eGsxi8Qfc4gQAiIjVG5qnq8w8JOmTrrMUyXNdNrh1+dzaLa6DAKAAAJFT39BygzW6W9IlrrMUgpE2dhn73++sm/nPrrMA+BAFAIio1U1br7RB8A1jdLXrLIO03ljdc/uc6h8ZY6zrMAA+igIARNzqptZFCuxyGf2WpLTrPAPIyuqnSpmVy+qq17oOA+D0KABATKxcv2VMWXnq96302cjNEDBqNrLfC7JdT9wxf/a7ruMAGBgFAIihlQ1bastU9ofG2GutNEelPxnISmqwRv+aygbfXzq/trnE1weQJwoAEHP3vtA6fEhl8HFjzdXWaKGkWZIqC3yZDittMkbrZO3a9FD7/K21te8X+BoASogCACTMmjW2bPeUbeenbHChMUG1lWZIZrKkETIaJqvhkkZJOuPUp7wvqU1GR63V+0Y6KmvflFJbJW1NWW09MHfGWyuM8XlqIQAAAAAAAAAAAAAAAAAAAAAAAAAAAAAAAAAAAAAAAAAAAAAAAAAAAAAAAAAAAAAAADzw/wGQL3IJkgPy/QAAAABJRU5ErkJggg==;" parent="1" vertex="1">
                    <mxGeometry x="130" y="634.81" width="100" height="100" as="geometry"/>
                </mxCell>
                <mxCell id="26" value="https://replication-node1:9200" style="shape=image;verticalLabelPosition=bottom;labelBackgroundColor=default;verticalAlign=top;aspect=fixed;imageAspect=0;image=data:image/svg+xml,PHN2ZyB4bWxucz0iaHR0cDovL3d3dy53My5vcmcvMjAwMC9zdmciIHZpZXdCb3g9IjAgMCA2NCA2NCIgZmlsbD0ibm9uZSI+CjxwYXRoIGQ9Ik02MS43Mzc0IDIzLjVDNjAuNDg3OCAyMy41IDU5LjQ3NDggMjQuNTEzIDU5LjQ3NDggMjUuNzYyNkM1OS40NzQ4IDQ0LjM4MTMgNDQuMzgxMyA1OS40NzQ4IDI1Ljc2MjYgNTkuNDc0OEMyNC41MTMgNTkuNDc0OCAyMy41IDYwLjQ4NzggMjMuNSA2MS43Mzc0QzIzLjUgNjIuOTg3IDI0LjUxMyA2NCAyNS43NjI2IDY0QzQ2Ljg4MDUgNjQgNjQgNDYuODgwNSA2NCAyNS43NjI2QzY0IDI0LjUxMyA2Mi45ODcgMjMuNSA2MS43Mzc0IDIzLjVaIiBmaWxsPSIjMDA1RUI4Ii8+CjxwYXRoIGQ9Ik00OC4wODE0IDM4QzUwLjI1NzIgMzQuNDUwNSA1Mi4zNjE1IDI5LjcxNzggNTEuOTQ3NSAyMy4wOTIxQzUxLjA4OTkgOS4zNjcyNSAzOC42NTg5IC0xLjA0NDYzIDI2LjkyMDYgMC4wODM3MzI3QzIyLjMyNTMgMC41MjU0NjUgMTcuNjA2OCA0LjI3MTIgMTguMDI2IDEwLjk4MDVDMTguMjA4MiAxMy44OTYxIDE5LjYzNTIgMTUuNjE2OSAyMS45NTQ0IDE2LjkzOTlDMjQuMTYxOCAxOC4xOTkyIDI2Ljk5NzggMTguOTk2OSAzMC4yMTI4IDE5LjkwMTFDMzQuMDk2MiAyMC45OTM0IDM4LjYwMDkgMjIuMjIwMyA0Mi4wNjMgMjQuNzcxN0M0Ni4yMTI1IDI3LjgyOTUgNDkuMDQ5MSAzMS4zNzQzIDQ4LjA4MTQgMzhaIiBmaWxsPSIjMDAzQjVDIi8+CjxwYXRoIGQ9Ik0zLjkxODYxIDE0QzEuNzQyNzYgMTcuNTQ5NSAtMC4zNjE1MDYgMjIuMjgyMiAwLjA1MjQ5MzEgMjguOTA3OUMwLjkxMDA3MiA0Mi42MzI3IDEzLjM0MTEgNTMuMDQ0NiAyNS4wNzk0IDUxLjkxNjNDMjkuNjc0NyA1MS40NzQ1IDM0LjM5MzIgNDcuNzI4OCAzMy45NzQgNDEuMDE5NUMzMy43OTE4IDM4LjEwMzkgMzIuMzY0NyAzNi4zODMxIDMwLjA0NTYgMzUuMDYwMUMyNy44MzgyIDMzLjgwMDggMjUuMDAyMiAzMy4wMDMxIDIxLjc4NzIgMzIuMDk4OUMxNy45MDM4IDMxLjAwNjYgMTMuMzk5MSAyOS43Nzk3IDkuOTM2OTQgMjcuMjI4M0M1Ljc4NzQ2IDI0LjE3MDQgMi45NTA5MiAyMC42MjU3IDMuOTE4NjEgMTRaIiBmaWxsPSIjMDA1RUI4Ii8+Cjwvc3ZnPg==;" parent="1" vertex="1">
                    <mxGeometry x="-65" y="820" width="100" height="100" as="geometry"/>
                </mxCell>
                <mxCell id="28" value="https://replication-node2:9200" style="shape=image;verticalLabelPosition=bottom;labelBackgroundColor=default;verticalAlign=top;aspect=fixed;imageAspect=0;image=data:image/svg+xml,PHN2ZyB4bWxucz0iaHR0cDovL3d3dy53My5vcmcvMjAwMC9zdmciIHZpZXdCb3g9IjAgMCA2NCA2NCIgZmlsbD0ibm9uZSI+CjxwYXRoIGQ9Ik02MS43Mzc0IDIzLjVDNjAuNDg3OCAyMy41IDU5LjQ3NDggMjQuNTEzIDU5LjQ3NDggMjUuNzYyNkM1OS40NzQ4IDQ0LjM4MTMgNDQuMzgxMyA1OS40NzQ4IDI1Ljc2MjYgNTkuNDc0OEMyNC41MTMgNTkuNDc0OCAyMy41IDYwLjQ4NzggMjMuNSA2MS43Mzc0QzIzLjUgNjIuOTg3IDI0LjUxMyA2NCAyNS43NjI2IDY0QzQ2Ljg4MDUgNjQgNjQgNDYuODgwNSA2NCAyNS43NjI2QzY0IDI0LjUxMyA2Mi45ODcgMjMuNSA2MS43Mzc0IDIzLjVaIiBmaWxsPSIjMDA1RUI4Ii8+CjxwYXRoIGQ9Ik00OC4wODE0IDM4QzUwLjI1NzIgMzQuNDUwNSA1Mi4zNjE1IDI5LjcxNzggNTEuOTQ3NSAyMy4wOTIxQzUxLjA4OTkgOS4zNjcyNSAzOC42NTg5IC0xLjA0NDYzIDI2LjkyMDYgMC4wODM3MzI3QzIyLjMyNTMgMC41MjU0NjUgMTcuNjA2OCA0LjI3MTIgMTguMDI2IDEwLjk4MDVDMTguMjA4MiAxMy44OTYxIDE5LjYzNTIgMTUuNjE2OSAyMS45NTQ0IDE2LjkzOTlDMjQuMTYxOCAxOC4xOTkyIDI2Ljk5NzggMTguOTk2OSAzMC4yMTI4IDE5LjkwMTFDMzQuMDk2MiAyMC45OTM0IDM4LjYwMDkgMjIuMjIwMyA0Mi4wNjMgMjQuNzcxN0M0Ni4yMTI1IDI3LjgyOTUgNDkuMDQ5MSAzMS4zNzQzIDQ4LjA4MTQgMzhaIiBmaWxsPSIjMDAzQjVDIi8+CjxwYXRoIGQ9Ik0zLjkxODYxIDE0QzEuNzQyNzYgMTcuNTQ5NSAtMC4zNjE1MDYgMjIuMjgyMiAwLjA1MjQ5MzEgMjguOTA3OUMwLjkxMDA3MiA0Mi42MzI3IDEzLjM0MTEgNTMuMDQ0NiAyNS4wNzk0IDUxLjkxNjNDMjkuNjc0NyA1MS40NzQ1IDM0LjM5MzIgNDcuNzI4OCAzMy45NzQgNDEuMDE5NUMzMy43OTE4IDM4LjEwMzkgMzIuMzY0NyAzNi4zODMxIDMwLjA0NTYgMzUuMDYwMUMyNy44MzgyIDMzLjgwMDggMjUuMDAyMiAzMy4wMDMxIDIxLjc4NzIgMzIuMDk4OUMxNy45MDM4IDMxLjAwNjYgMTMuMzk5MSAyOS43Nzk3IDkuOTM2OTQgMjcuMjI4M0M1Ljc4NzQ2IDI0LjE3MDQgMi45NTA5MiAyMC42MjU3IDMuOTE4NjEgMTRaIiBmaWxsPSIjMDA1RUI4Ii8+Cjwvc3ZnPg==;" parent="1" vertex="1">
                    <mxGeometry x="130" y="820" width="100" height="100" as="geometry"/>
                </mxCell>
                <mxCell id="30" value="stdout" style="shape=image;verticalLabelPosition=bottom;labelBackgroundColor=default;verticalAlign=top;aspect=fixed;imageAspect=0;image=data:image/png,iVBORw0KGgoAAAANSUhEUgAAAgAAAAIACAYAAAD0eNT6AAAABHNCSVQICAgIfAhkiAAAAAlwSFlzAAALEwAACxMBAJqcGAAAABl0RVh0U29mdHdhcmUAd3d3Lmlua3NjYXBlLm9yZ5vuPBoAACAASURBVHic7d15mFxlnbfx7+9UpTu9JqwKRJJGEBhFFHdhlMyoaEjEZRKVzQAhgYRBcYz6KnHqBUQhKANCkCys74xj4oiihFFAccR1xAVEQJN0h0UlJCxJupN0d53f+wdbk6W7qutUPXXq3J/r8tI0oeuLF93PnXOqq0x1YvZ3N+7pudwb5Haoyw6SfD9Je0naW1KTy8bFrnzRPS7GPqa/aOqPPbdlQLm+QVffoLR5m2sgDvwPAkCS9UreL2lQrg0ybZC0QdLDcuuRvEdmf9o913b/3XNsIOxWIJss1APPWtk3QbEdbaajpPjvXXZoEnv6Bl0bt0lPbHVt2OLqLyYwFkC1DEi6X/LfyvXTnNvPVs1r/6PMPPQwoNHVNABm3vTk+DHNTdPj2E4205G1ePxN/dJjva51fa4tg3xPAVLgccm/b4pu3RbH33/0rM4NoQcBjagmAXDq97ZMjsznSDpO0thaPObObOyX1hEDQJoMSrrD5N+ItxVv6jlnt6dCDwIaRVUDYPatW46Ki16Q6R+r+Tij0TvgeqzP9Viv1DdADAApsE3SzSZbvObMtju4TQBUpioBMPvWLUfF7ufLdXQ1Pn/SuDIApIzpXnf7ctuebV+/b4b1h54DpFGiAXDCSu9s0daFcj896c9dK1wZAFLlLy5bOLi17epHPmFbQo8B0iSxQ/q0Wza/2xQtlvSypD5naMQAkA4mPSrXhfs/3r74zoINht4DpEHFATD7u94aR31XSHZKEoPqFbcJgFR40GKbt+as9jtCDwHqXUUBcOp3eveN8vZtSW9IaE8qcGUAqGtuZtdHA/6pVWd3PB56DFCvRh0Ap63sfa25fUcNdMl/NIgBoG494dLneta1L1bBeI1QYDujCoBZK/v+Sa4bJLUkvCfVuE0A1CHXbWqyk7pPb38s9BSgnpQdAKet7H2fua2QlK/CnobBlQGgrqyT20nd89p/EHoIUC/KCoBZt2x9pxR/V1JzlfY0JGIAqAtFl87rWdd+AbcEgDIC4LSVfUea6/uS2qq4p+ERA0BgpjvGRP7hP83pXB96ChBSSQEw+7vbDomj4q8kdVR5T6bwnAEgENcDls8fs2ZOy0OhpwChjBgA5yz3ls1tW37u0uG1GJRVXBkAasz0SK6od686q+O+0FOAEEYMgFkre6+T20drMQbPIAaAmnnS3N+7Zl7nXaGHALU2bACcvrL3dHdbXKsx2BExAFRdn0XR9DVntK0MPQSopV0GwKyVfRPkekA86a9uEANA1fQrsqndZ7TfFnoIUCvRrv6CSV8Rh39daRtjOmBcpLfsG+nN+0bqGm9qHZPKN10E6k2TYv/mxKt6Xxt6CFArOz09Zq3c8g9y5800UoIrA0Bi/lpU8aiH5o5fE3oIUG07BEDhR55/pG/rbyQ/LMQgVIYYACrj0mq5HdUzr/1vobcA1bTDLYBHevtO5fBPr6G3Cd6wT04TOyO15LlNAJTKpJebxTcfeLnziqdoaC8OAHeT6eOBtiBhnU3SgbuZ3rofzxkAymNvKOY2Xxx6BVBNLzoNTlvZO83cbg41BrXBbQKgNOb64Jp5Hd8KvQOohhcFwKyVfT+S6+hAWxAAMQAM66m4WDxi7T+P7w49BEja8wFw+i2bX+OKfhtyDMLivQmAnXD/deteHUfeN8P6Q08BkjTkOQDRR8LNQD3gOQPATpi9fsv63vNCzwCS9vx391m39D0g6eCAW1CnuE0AaDBS9ObVc9vuDj0ESIpJz7/d7/2hx6D+EQPIKjP9Zv/H2t90Z8EGQ28BkhBJUhzF7ws9BOnAyxEjq9x1xNq9N88JvQNIiknSad/r+4mZjgo9BunFEwiREU/2x37Qo2d1bgg9BKhUNH25N5np9aGHIN14AiEyYrfmnC0IPQJIgp1+a+8bPLZfhR6CxsSVATSgbZHnDlo9r/Xh0EOASuTjWIfz5zRUS2eT1NlkOnA34wmEaBTNruLnJJ0ReghQiSgy40f/UBM8gRCNwk2nvvzKvpeF3gFUIpLrwNAjkD28ayFSbkyswY+FHgFUInJp39AjkG08gRCpZDZ70qVPjg89AxitSNJLQo8AnsNtAqRIh5rGfDT0CGC0IknjQo8AdobbBKh3Zs4LAyG1IkljQ48ARsJtAtSpQyd+beNbQo8ARiMvqSn0CKAcz1wZMB0wjtcZQHi52E6W9PPQO4By2axb+viuiYbA6wwgkPUT17Xvw5sEIW3yoQcASeHKAALZc+1LeydLui30EKAcBAAa0tBXINzULz26Kdbfel1FWgDVEPtxIgCQMlHoAUC1dTRJh+wR6cgJOXWNi5Tn33okzqaEXgCUi2+FyIwxkXTAeNOR++V0wHhTzvgpAiTFuw64YuMrQq8AykEAIHPykdQ1LtJb9ou0X7uJDEAicvaPoScA5SAAkFnNuWduDRzxEl5gCJXzWEeG3gCUgwBA5o0fa3rTvpH27yQCUAHzo0JPAMpBAACSciYdtFukV+0ZKUcHYFRsYteSzby3ClKDAACGeEmb6fX75LglgFGxAR0WegNQKgIA2E77GOn1+0Tq4EWyUb5Xhx4AlIoAAHaiKZKOeElO45q4EoDSufzQ0BuAUhEAwC7kI+m1LzWNayYCUCJTV+gJQKkIAGAYOTO9Zu9I7WNCL0EqOAGA9CAAgBHkI+k1e+fUzDtnYGQvU8H5vopU4F9UoATNeenwvXL8iCBGMmbChI3jQ48ASkEAACXqaJIO2p0vGQyvaVB7hN4AlILvZkAZ9ms3vaSNywDYtTgmAJAOBABQpkN2jzQ2F3oF6pV71BJ6A1AKAgAoUz6SDuZWAHbBZM2hNwCl4LsYMAp7tpr2auVWAHbCYwIAqUAAAKN04HiT0QDYjpnxqhFIBQIAGKXWMab92ikAAOlEAAAVmDQuUkQDAEghAgCoQHNOemkbX0YA0ofvXECFJnZKXAQAkDYEAFCh1jGm8S0kAIB0IQCABOzDjwQCSBkCAEjA3q1SjmcDAkgRAgBIQC4y7Tk29AoAKB0BACRkD14BHkCKEABAQnZv4csJQHrwHQtISHNOahvD8wAApAMBACSosyn0AgAoDQEAJKijmSsAANKBAAAS1MH7wAFICQIASFALzwEAkBIEAJCgppx4d0AAqUAAAAkySc15CgBA/SMAgIRxFwBAGhAAQMJyBACAFCAAgIRFfFUBSAG+VQEJ4woAgDQgAICkEQAAUoAAAAAggwgAAAAyiAAAACCDCAAAADKIAAAAIIMIAAAAMogAAAAggwgAAAAyiAAAACCDCAAAADKIAAAAIIMIAAAAMogAAAAggwgAAAAyiAAAACCDCAAAADKIAAAAIIMIAAAAMogAAAAgg/KhBwAA0m1W4aIJg4PRgdGzZ4rLx8YWd8dbcj03XjK/N/Q+7BwBAAAoy6nnXnSwW256bH6MuV41WNR4mRQ//ztMppxyLdLMBQv/IvcfuekHY4pN31964ccfCzgdQxAAAIARFQqFfE+x9URJn4hlh0ku85L+1n1ldoJJJwzmBgZmLli4IorjS6/5wqd/Xd3FGAnPAQAADMPtlAULT+wutt0v2bWSHVbBJxsj6fg4iv535oKF//3Rcy9+eVIrUT6uAAAAduqkwsK9o+KXl7k01ZL/9MeY2b0zF1x8Xu8DkxauWDGjmPxDYDhcAQAA7GDmuQuPzhX9HpNPreLDtEj2xbZD1t48t3BlexUfBztBAAAAXmTmuRdPkWmlZC+p0UNO6Rvs+8nJn/vKfjV6PIgAAAAMccrnFx4ns5sktdT0gU2viaLiT04ufGn/mj5uhhEAAABJ0mmFha9y179Lago0oSsq5n5y0rkLuwI9fqYQAAAAnfqpizriopZLags8Zf+c6U4ioPoIAACA4qboyy4dGnrHs/bPme7gdkB1EQAAkHGnLvjy4TKdGnrHdrgdUGUEAABknMsvlZQLvWMnuBJQRQQAAGTYRxdc8jqXTw69YxhcCagSAgAAssz8tNATSsATA6uAAACAjJpZKIw110dC7ygRtwMSRgAAQEZZsfVNksaH3lEGbgckiAAAgKxye2voCaPA7YCEEAAAkFXmbw49YZS4HZAAAgAAMsqlNP8pmtsBFSIAACCzbI/QCyrE7YAKEAAAkF27hx6QACJglAgAAMgkN0ljQ69ICBEwCgQAAKAREAFlIgAAAI2CCCgDAQAAaCREQIkIAABAoyECSkAAAAAaEREwAgIAANCoiIBhEAAAgEZGBOwCAQAAaHREwE4QAACALCACtkMAAACygggYggAAAGQJEfAsAgAAkDVEgAgAAEA2ZT4CCAAAQFZlOgIIAABAlmU2AggAAEDWZTICCAAAADIYAQQAAADPyFQEEAAAALwgMxFAAAAA8GKZiIB86AEAMm9A0sMmrXX5Iybb4NIGM21wV1GyPsm3hR5Zqlwx94vQG5CI5yLg6BsvmN8dekw1EAAAamm9ZD83998o0r0Wx79fvVdnt2ZYMfQwYCcaOgIIAADVtMlct7v8Vs/rJz2zOx6UmYceBZShYSOA5wAASNp6SYsttnfsnmvfY828jg90z+tc0jOn8wEOf6RUQz4ngAAAkIRBk75tiqdOXNe+T/fcjjlrzmq/4+45NhB6GJCQhosAbgEAqMQ6l670XLRk7Zy2v0rSmtCLgOppqNsBXAEAMBqr5D7bW9on9sztOO+5wx/IgIa5EkAAACjHQ5LmTFzXfmj3vM4lPafY1tCDgAAaIgIIAACl6DP5Z1v3bD+oe27H4jsLNhh6EBBY6iOAAAAwAvue2+Ar18zt/OJ9M6w/9BqgjqQ6AggAADtnekSu6d1z26f1nLlbT+g5QJ1KbQQQAAB25LpiW9R+cPe8jm+GngKkQCojgAAAMNRGd324e17HP/9ljvWFHgOkSOoigAAA8Jy7c7niET3zOr4RegiQUqmKAAIAgJvpstY929+6as741aHHACmXmgggAIBsK7rpzDVndnycZ/gDiUlFBBAAQHZtk/SRnjM7rg49BGhAdR8BBACQTZsV2bTuuR0rQg8BGlhdRwABAGTP32KL3tZ9RvttoYcAGVC3EUAAANnyuMX+9rVntv029BAgQ+oyAggAIDv64siPW3NW559CDwEyqO4igAAAsmHAzT6w9ozOn4ceAmRYXUUAAQA0vthdJ/Wc2f790EMA1E8EEABAg3PTOby6H1BX6iICCACgkbmW95zZcXnoGQB2EDwCCACgca3KFftPDz0CwC4FjQACAGhMW2OLZqw6e4+NoYcAGFawCCAAgAbkpo/zs/5AagSJAAIAaDSmb/L6/kDq1DwCCACgsWwcHIw+FnoEgFGpaQQQAEBjOffhf277S+gRAEatZhFAAACNwnTvxHXtV4WeAaBiNYkAAgBoDHFsPufOgg2GHgIgEVWPAAIAaASmZbzOP9BwqhoBBACQflsGlPu/oUcAqIqqRQABAKSeXfHIma2Phl4BoGqqEgEEAJBq1psb9IWhVwCousQjgAAAUs2vWXV2x+OhVwCoiUQjgAAA0quYyxUvCz0CQE0lFgEEAJBS5rp51Zzxq0PvAFBziUQAAQCkVBwZr/cPZFfFEUAAAOn0UM8ebbeHHgEgqIoigAAAUshN12iGFUPvABDcqCPAZt3S59VYBGTVvetjreut7pdV7Pq7tfM67q/qgwQws3DxSy2OJrv7UZIOkXSgpA5J4yVZ0HFAfevOxTZ52Rc+ubbUv4EAABJWgwD4fffcjtdU8wFqaXqh0NRabP1wpGimy98urkwCo1VWBPCFBqSN6b9CT0hCoVDIn7Jg4VmtxbbVJrve5ZPF9ySgEl3FyH902ucumVjKb+aLDUiZyKOVoTdUauaCS97QU2z7tUtfNWlC6D1AAyk5AggAIF3WrV7X+tvQIypxyrmXnCP5XZIOD70FaFAlRQABAKSJ6zYVLA49YzSmT1+em7ng4qvc/CuSmkLvARpcVzHy/xnupwMIACBFPNJPQm8YjUKhELUd3HO9ZGeE3gJkyP4589tP/Oyl++zsLxIAQIrkpJ+G3jAaPXHrV2R2QugdQPbYAfnc4K0nFC7v3P6vEABAemxa/Vj7H0OPKNcpn7/4Q3L7WOgdQIYdPqa47ZrtP0gAAOlxT9ru/5907sKu2G1p6B0A9MFTFlwya+gHCAAgJVy6J/SGckVml5vUHnoHAMnlF88uXLLnc78mAICUiFx/CL2hHKeeu/AdJp8aegeA5+3WH6vw3C8IACAl4shWh95Qjtj0udAbAGzHfdZzPxVAAAApYR73hN5QqtMKC18l6ejQOwDsoDmXK54uEQBAWvjA1o6HQo8oVTHWyaE3ANgVP0kiAIC0ePqRT9iW0CNK5jou9AQAO2fSgR9d8KVXEgBAOqwPPaBUpxYu2lfSK0LvALBrpvzbCQAgFWxD6AWligdzbwy9AcAI3N9MAACp4JtCLyiZxYeEngBgBKZXEABAKti20AtKZtGE0BMAjGgiAQCkgLn3h95QKnPvCL0BwIg6CAAgBTxSMfSGUrlbc+gNAEY0lgAA0mFM6AElM/WGngBgRJsJACAN3FP0p2p/KvQCACOxJwkAIAVMabqsnq73LACyyOWrCAAgBVzaLfSGUsVWvD/0BgDDM7P7CQAgDUx7jvyb6sPYaMsvJaXnxxaBTIp/QgAAaeDaI/SEUi0uFPpk+mXoHQB2qWgDg3cSAEA6tExY+vTuoUeUzO0boScA2KU7rv3iZx8nAICUyG3NTwq9oVTxYP83JG0NvQPAjtzsBom3AwZSI2fxpNAbSnXDFz+7QdI1oXcA2MHDzX/rWC4RAEB6mB8cekI54lzxIklbQu8A8AKTnbd48ZwBiQAAUiM2Oyz0hnLcUPjMQ3JdFHoHgGe5fjMxt/n5K3MEAJAWrleHnlCujqebvyTXPaF3ANDWyKJTC4VC/NwHCAAgJUw6+CUL/9YWekc5vvrVs7dFimdI2hR6C5Bt9i/XnP8vvx/6EQIASI/82Na2N4YeUa5rLvj0g+Z6n3hxICAIN1113fmfXLT9xwkAIEUi05GhN4zGtRfM/6FLJ0vqD70FyJj/6Ip6z9rZXyAAgDRxvS30hNG6/vz5y919mrgdANSEu3+994GJJw+97z8UAQCkieltr7xyXXvoGaN1/QWf+oHcXyfX70JvARqZScu78n0nr1gxo7ir30MAAOnSvCUae3ToEZW47oJP/blpXecb5fZxlzaH3gM0GpOWT8z1nlAoFAaH+30EAJA2sU0NPaFSixfPGbjugk9eFsXR38nsq+IFg4BEuPvXNz8w8fiRDn9Jslm39HktRgFZce/6WOt6q/pltX7iuvZ97izYiF/gaXH8Z764W9OYMR8yaYbL3yqpOfQmIG3c/et9D046abjL/kMRAEDCahAAUmTv6j6j/bbqPkgY08/5Skt7++Ab5XZIbDowkne6ot1C72pMPj30AiSj3MNfkvLVHASgOsx1vKSGDIAVl35ii6QfP/sfVI3bzAWXEAANwKTlk/J9JxfKOPwlngMApJK7f2jSpU+OD70DQFilPuFvZwgAIJ1aorH5j4QeASCcSg5/iQAAUsulM+VuoXcAqL1KD3+JAADSy3XYpK/1viv0DAC1lcThLxEAQKpZ7P8SegOA2knq8JcIACDdTO/suurp1L1DIIDyJXn4SwQAkH4enRd6AoDqSvrwlwgAoBEcc8CVG48KPQJAdVTj8JcIAKAxRHaZlnsu9AwAyarW4S8RAEBDcNcRXes3nxF6B4DkVPPwlwgAoJFcOPHq3n1CjwBQuWof/hIBADSSzqhYvCj0CACVqcXhLxEAQIOxEydeuWly6BUARqdWh79EAACNxiLT4gMv39AZegiA8tTy8JcIAKARHVjMNy0NPQJA6Wp9+EsEANCopk9atImfCgBSIMThLxEAQMMy6d8mXtX72tA7AOxaqMNfIgCARtYcebyc5wMA9Snk4S8RAECjO7CYb/qvVy73ptBDALwg9OEvEQBAFryjd/3ma1Vwvt6BOlAPh79EAACZYNLxXXttviz0DiDr6uXwlwgAIDtMZ3Ut2jg/9Awgq+rp8JcIACBj7KKuRRtnhV4BZE29Hf4SAQBkjUm2+IArNxVCDwGyoh4Pf4kAALLI3PSvXVduuownBgLVVa+Hv0QAANllOrtrr803vO5qHxN6CtCI6vnwlwgAINtMJzxZ3PQdXiwISFa9H/4SAQBknsveU8w3/37SFU+/KfQWoBGk4fCXCAAAkiSfZFH040lXbv5Y6CVAmqXl8JcIAAAvaDbzfzvgyk3fmnTpk+NDjwHSJk2Hv0QAANiOm96v5vyvuxZt/PvQW4C0SNvhLxEAAHbCpJdL9uOuRRtvmLD06d1D7wHqWRoPf4kAALBrJtlJY/qjP0y6cuNMXjMA2FFaD3+JAAAwsn3M7NquvTf9ouuKTW8LPQaoF2k+/CUCAEDJ7A2K9OOuRZvumrRo09tDrwFCSvvhLxEAAMp3pEl3di3adFfXlRunyd1CDwJqqREOf4kAADB6R8rs5klXbb63a9GmefzoILKgUQ5/iQAAUCGTXinpCmvO/6Vr0cYbJl25+d28vwAaUSMd/pKUDz0AQMNokewkMz/pieLmDV2LNt3k8luam7fd8eBpe20KPQ6oRKMd/hIBAKA69pA0y2Sz+reN7T9g0aafyvU/Mrurxft+cd+8vTeHHgiUqhEPf4kAAFB9TS5Nlmmy5OqzlsGuKzetknSPpHsU6c8WR91RMe5ZdXbH46HHAkM16uEvEQAAai8v0yGSDpE0Qy65xSrmpa5Fm7ZJ2iDTBnOtd6koU69c/YE3l8wVf6Vn7rhfhN6ByjXy4S8RAADqS7OkfeXa15/7iA/zu+uQebQ89AZUrtEPf4mfAgAA4EWycPhLBAAAAM/LyuEvEQAAAEjK1uEvEQAAAGTu8JcIAABAxmXx8JcIAABAhmX18JcIAABARmX58JcIAABABmX98JcIAABAxnD4P4MAAABkBof/CwgAAEAmcPi/GAEAAGh4HP47IgAAAA2Nw3/nCAAAQMPi8N81AgAA0JA4/IdHAAAAGg6H/8gIAABAQ+HwLw0BAABoGBz+pSMAAAANgcO/PPnQAwAAwbgkCz0iCe7+9d4HJ51UWDGjGHpLWnAFAAAyyVzSptArkmDS8q5838krOPzLQgAAQHZtCD2gUlz2Hz1uAQBAdq2X1BV6xGhx2b8yXAEAgIxy1x9CbxgtLvtXjgAAgIyKzH4WesNocNk/GdwCAICsyulnStmfn7nsnxyuAABARl1b+OQfJf0x9I5Scdk/WQQAAGSYya8NvaEUXPZPHgEAABk2mLMbJPWH3jEcd//65gcmHs/hnywCAAAy7MbC/HWSrgi9Y1e47F89BAAAZF0uf74/85oAdYXL/tVFAABAxl1XOOcpM3029I6huOxffQQAAEDXnTd/iVzXh94hcdm/VngdAACAJKm4VfNyLX6EZIeF2sDP+dcOVwAAAJKkGy+Z3xvH+feYdH+gCf/R9+Ckk/iTf20QAACA593whU88OpjT0XL9rpaPa9Llk3K9HP41RAAAAF7kxsL8dU0DxaMl/WcNHq7fZKdfe/78jxUKhbgGj4dnEQAAgB0svugzT193/vyPyOxkSU9X4zHcdJfl7LXXnv/JpdX4/BgeAQAA2KXrzvvkjTY4cJBMCyX1JvRpV7tp1vXnffJtz74fAQIgAAAAw7r2i599/Lrz5n8qXxzzcpf9q+T3juLTDLh0u9zePynX+4rrz5u/TDJPfCxKxo8BAgBKsvTCjz8m6TxJ55167kUHx7J3melVbvYquQ7SC2dKk6S1Jq11s1WK9cOov3jHNRd/elOw8dgBAQAAKNs1F3z6QUkPht6B0eMWAAAAGUQAAACQQQQAAAAZRAAAAJBBBAAAABlEAAAAkEEEAAAAGUQAAACQQQQAAAAZRAAAAJBBBAAAABlEAAAAkEEEAAAAGUQAAACQQQQAAAAZRAAAAJBBBAAAABlEAAAAkEEEAAAAGUQAAACQQQQAAAAZRAAAAJBBBAAAABlEAAAAkEEEAAAAGUQAAACQQQQAAAAZRAAAAJBBBAAAABlEAAAAkEEEAAAAGUQAAACQQQQAAAAZRAAAAJBBBAAAABlEAAAAkEEEAAAAGUQAAACQQQQAAAAZRAAAAJBBBAAAABlEAAAAkEEEAAAAGUQAAACQQQQAAAAZRAAAAJBBBAAAABlEAAAAkEEEAAAAGUQAAACQQQQAAAAZRAAAAJBBBAAAABlEAAAAkEEEAAAAGUQAAACQQQQAAAAZRAAAAJBBBAAAABlEAAAAkEEEAAAAGUQAAACQQQQAAAAZRAAAQILcfDD0BqAUBAAAJMiV2xZ6A1AKAgAAEpS3mABAKhAAAJCgosd9oTcApSAAACBBOdf60BuAUhAAAJCgAfMNoTcApSAAACA5Aw+tG/d06BFAKQgAAEjOwypYHHoEUAoCAACSYuoOPQEoFQEAAElxAgDpQQAAQELM7Y+hNwClIgAAICmue0JPAEpFAABAQrxZfwi9ASgVAQAAibCe7tPbHwu9AigVAQAAiYjvCr0AKAcBAAAJcNlPQ28AykEAAEACoth/GHoDUI586AEAkH7Wveasjj+FXgGUgysAAFAxXxl6AVAuAgAAKmSyb4feAJSLAACAyjy+/7q2O0OPAMpFAABABVz65p0FGwy9AygXAQAAFfDIbwy9ARgNAgAARu/+tWd0/jz0CGA0CAAAGCV3uzr0BmC0CAAAGJ1N6h+4PvQIYLQIAAAYFb+655zdngq9AhgtAgAAytcfef7y0COAShAAAFAmk65ZPa/14dA7gEoQAABQnq3muQtDjwAqRQAAQBlM+hp/+kcjIAAAoHRPbIv9gtAjgCQQAABQIjOd++hZnRtC7wCSQAAAQAnM9Jv9H2tfEnoHkBQCAABGNmgezeZNf9BICAAAGIHJvrx6btvdoXcASSIAAGA4Wd6/NAAACNtJREFU7r9u2bPt86FnAEkjAABg154qWvyh+2ZYf+ghQNIIAADYBXOd9tDc8WtC7wCqgQAAgJ1xXb5mXse3Qs8AqiUfegAA1B/7Va7Y9qnQK4BqIgAAYAiXVtsYvXfVXNsWegtQTZEkDz0CAOrEuiiK39N9evtjoYcA1RZJ4tmtACBtjC1695ozxv059BCgFiJJfaFHAEBg/Yrsn9ae2fbb0EOAWiEAAGRdnyn+QPcZ7beFHgLUUmTS+tAjACCQJ839mDVzx90SeghQa5FLD4ceAQAB/FWyo9fM67wr9BAghLyktaFHAECN3W+5/LvXzGl5KPQQIJTIpdWhRwBADd3eH/vfc/gj6yKLjWe9AsiCoqQF3evaj3n0rM4NoccAoeW35Mb+psW3xOJ9AQA0rnWK7ESe6Q+8IPr3KbZR0qrQQwCgGlz6obsdzuEPvNgzf+p3uyPwDgBI2kZzzetZ1/7Onnntfws9Bqg3eUkyxf/tsjNDjwGARJi+kxvInbXq7NZHQk8B6lVeksa0tf6wv2/LNknNgfcAwKiZ9Ed3O6d7bvsPQm8B6l0kSYsm22aZVoYeAwCjYnrETWfsv6798O55HP5AKfLP/Q8r6kaP9P6QYwCgLKZHXFqYH2i/etXZtq0n9B4gRZ4PgKe2tNwyrm3Lekl7BtwDACMz3avYLmnds+0/75thvKU5MAo29Ben39J7ocv+T6gxQCO4d32sdb0eekYj2irpuyZbvObMtjtkxv/JQAXyQ3/hg36Z8naOpLGB9gDAUAMmvz1W9I0o1//tNXN2f1qSNDfwKqAB2PYfmHXLliWSzwoxBmgEXAGokOsxmX/fzW4dHBP/4JFZ454IPQloRPkdPhDpC4OxThRXAQBUX7+kByT/raS7Yrefrp3b/gCX94Hq2+EKgCTNuqXvYknza7wFaAhcAZD0zP36LZIG5dog0wZJGyQ9LLNuk/do0P60W1PbA3fPsYGwU4Fs2mkAzLzpyfH55uZVcu1R60FA6pmmL53S+s3QMwBgODt9B8Dr3r/bU4rt47UeAwAAamOXbwG8dGrL/zPp27UcAwAAamOXASBJuVhnPXvvDgAANJBhA+Br01ofdbMPSSrWaA8AAKiBYQNAkpa9p+UOyS+oxRgAAFAbIwaAJE3439bzzLSi2mMAAEBtlBQAhYLFT21uOVHy26o9CAAAVF9JASBJK2ZYf9S0bbqku6u4BwAA1EDJASBJi9+5+9NNrS1Hm/Sjag0CAADVV1YASNKiybZ5a75lGrcDAABIr7IDQJJuPMZ6J7S2TnHTRUkPAgAA1TeqAJCkwmQbXDal9TNyn6Nn3tELAACkxKgD4DlLp7Ytdi++TtLvEtgDAABqoOIAkKRlUzv+MNja8hYzXSJpMInPCQAAqieRAJCk6ybb1iVTWudHce4wmX0/qc8LAACSl1gAPGfxtOYHlk5pebe7ZsjtvqQ/PwAAqFziAfCcZVNbV0z49dhXy/VBmX5TrccBAADls1o90Kzv9b5OUTRbsR8vU3utHheoOdP0pVNavxl6BgAMp2pXALa3dGrb3UuntMyJiy37yu0kN90saVutHh8AALygZlcAdmb2d721mOv7x8htuksfkNQWcg+QCK4AAEiBoAEw1AkrvbMl3vpej3y6uY6R1Bx6EzAaFusDS6a13hR6BwAMp24CYCiuDCDNzKN3Lpk69vbQOwBgOHUZAEMRA0gbj/WmZdNafxV6BwAMp+4DYChiAKngub9bOrX5/tAzAGA4qQqAoWbf9sS4eFvLNJ4zgHqTjzXha9NaHw29AwCGk9oAGIorA6gjW5/ubWlfMcOKoYcAwHAaIgCGIgYQlt279NiWV4deAQAjabgAGIoYQM25vrl0auv00DMAYCQNHQBD8ZwB1IT7hUuntn0u9AwAGElmAmCo7a4MfFBSa+hNaAzmftySqW03h94BACPJZAAMRQwgQcXB/m17Xvf+3Z4KPQQARpL5ABiKGEAlXPrlsmNb3xx6BwCUggDYBWIA5TL5F5cc2/bZ0DsAoBQEQAmIAZQikt68+NjWX4beAQClIADKRAxgZ1z687IpLQfLzENvAYBSEAAVIAbwPLdzl05t+ULoGQBQKgIgIbNve2Jcsb/lvSafLuld4nUGsiTOR/byr72npSf0EAAoFQFQBVwZyBjTTUuntH4g9AwAKAcBUGXEQOOzyN+45D1t/xt6BwCUgwCoIWKg8bjs1mXHtkwJvQMAykUABMJzBhqCm+uoJVNbfxZ6CACUiwCoA1wZSCnXvy+d2npi6BkAMBoEQJ0hBtLB5BuLgzr0muPa/hJ6CwCMBgFQx4iBuvaxpce2Xh56BACMFgGQEjxnoH64666XtbVMLky2wdBbAGC0CIAU4spAUE+47Ihlx7asDT0EACpBAKQcMVBTbu7vWzK17ebQQwCgUgRAA+E2QZW5n790atvnQ88AgCQQAA2KKwPJMunGJVNaPsq7/QFoFARABhADFfvehNaW9/OkPwCNhADImNm3PTEuHmg5Tu7TJb1T3CYYlkk/au9tOfbSGbYl9BYASBIBkGFcGRieSd9u7205nsMfQCMiACCJGNieuV+zX1vrHC77A2hUBAB2kPHbBAMufXrZsa2Xhh4CANVEAGBYs7/rrUXbcqyZTlbjx8DD5vow7+4HIAsIAJSswa8MfMtzA6cve/e4J0IPAYBaIAAwKg0UA4/I7HNLp7TcEHoIANQSAYCKpTQGtsr8y1Gx9cLF06wv9BgAqDUCAIlKQQz0SlqWj3Xx16a1Php6DACEQgCgambe9OT4fPPY99ZJDPzV5ctycfGyxdM61wfcAQB1gQBATWwXA++QNLYGD9sn102m+Man+tpuXzHDijV4TABIBQIANXfOcm/Z3Nr7Nlf0Tpn+QdJhkvIJfOpYpt+Z9EPJf7g11/o/Nx5jvQl8XgBoOAQAgpv5Ix87ZmvfYXGsIyR7RWR6mbteJmlvSeMljZHUIddmmTY/+99PS/qLmR6U/E9S9Kd8vO2eq6aOfzLoPwwApMT/BypbVwpk6Uc6AAAAAElFTkSuQmCC;" parent="1" vertex="1">
                    <mxGeometry x="325" y="820" width="100" height="100" as="geometry"/>
                </mxCell>
                <mxCell id="33" value="&lt;meta charset=&quot;utf-8&quot;&gt;&lt;span style=&quot;color: rgb(255, 255, 255); font-family: helvetica; font-size: 11px; font-style: normal; font-weight: 400; letter-spacing: normal; text-align: center; text-indent: 0px; text-transform: none; word-spacing: 0px; background-color: rgb(0, 0, 0); display: inline; float: none;&quot;&gt;isolated output&lt;/span&gt;" style="text;whiteSpace=wrap;html=1;fontColor=#FFFFFF;" vertex="1" parent="1">
                    <mxGeometry x="40" y="580" width="100" height="30" as="geometry"/>
                </mxCell>
                <mxCell id="34" value="" style="edgeStyle=none;html=1;fontColor=#FFFFFF;endArrow=none;" edge="1" parent="1" source="6" target="33">
                    <mxGeometry relative="1" as="geometry">
                        <mxPoint x="132.39490259264676" y="530" as="sourcePoint"/>
                        <mxPoint x="32.60509740735324" y="634.81" as="targetPoint"/>
                    </mxGeometry>
                </mxCell>
                <mxCell id="35" value="&lt;meta charset=&quot;utf-8&quot;&gt;&lt;span style=&quot;color: rgb(255, 255, 255); font-family: helvetica; font-size: 11px; font-style: normal; font-weight: 400; letter-spacing: normal; text-align: center; text-indent: 0px; text-transform: none; word-spacing: 0px; background-color: rgb(0, 0, 0); display: inline; float: none;&quot;&gt;isolated output&lt;/span&gt;" style="text;whiteSpace=wrap;html=1;fontColor=#FFFFFF;" vertex="1" parent="1">
                    <mxGeometry x="140" y="580" width="100" height="30" as="geometry"/>
                </mxCell>
                <mxCell id="36" value="&lt;meta charset=&quot;utf-8&quot;&gt;&lt;span style=&quot;color: rgb(255, 255, 255); font-family: helvetica; font-size: 11px; font-style: normal; font-weight: 400; letter-spacing: normal; text-align: center; text-indent: 0px; text-transform: none; word-spacing: 0px; background-color: rgb(0, 0, 0); display: inline; float: none;&quot;&gt;isolated output&lt;/span&gt;" style="text;whiteSpace=wrap;html=1;fontColor=#FFFFFF;" vertex="1" parent="1">
                    <mxGeometry x="250" y="580" width="100" height="30" as="geometry"/>
                </mxCell>
            </root>
        </mxGraphModel>
    </diagram>
</mxfile>